<svg width="170" height="170" viewBox="0 0 170 170" fill="none" xmlns="http://www.w3.org/2000/svg">
<rect x="1" y="1" width="168" height="168" stroke="#95E1D3" stroke-width="2"/>
<path d="M89.4999 119.333C83.8306 119.338 78.2432 117.981 73.2083 115.375C72.9648 115.249 72.7484 115.077 72.5717 114.867C72.3949 114.658 72.261 114.416 72.1779 114.154C72.0947 113.893 72.0637 113.618 72.0868 113.345C72.1099 113.072 72.1866 112.806 72.3124 112.563C72.4383 112.319 72.6109 112.103 72.8203 111.926C73.0298 111.749 73.272 111.615 73.5331 111.532C73.7943 111.449 74.0693 111.418 74.3424 111.441C74.6155 111.464 74.8814 111.541 75.1249 111.667C81.8687 115.098 89.6261 115.972 96.9645 114.129C104.303 112.286 110.727 107.85 115.049 101.64C119.372 95.4303 121.301 87.866 120.481 80.3443C119.661 72.8226 116.148 65.8516 110.588 60.7187C105.029 55.5859 97.8009 52.638 90.2378 52.4194C82.6747 52.2008 75.2879 54.7263 69.4417 59.5295C63.5955 64.3326 59.6848 71.089 58.4318 78.5508C57.1788 86.0126 58.6682 93.6758 62.6249 100.125C62.904 100.602 62.9862 101.169 62.8539 101.706C62.7217 102.243 62.3854 102.707 61.9166 103C61.6817 103.144 61.4206 103.239 61.1485 103.281C60.8765 103.324 60.5987 103.311 60.3314 103.246C60.064 103.18 59.8124 103.061 59.591 102.898C59.3696 102.734 59.1829 102.528 59.0416 102.292C54.4691 94.9695 52.7284 86.2294 54.1466 77.7141C55.5648 69.1987 60.0442 61.4946 66.743 56.0495C73.4418 50.6045 81.8987 47.7936 90.5242 48.1451C99.1496 48.4966 107.35 51.9864 113.583 57.9584C118.397 62.4203 121.876 68.1321 123.633 74.4565C125.389 80.7808 125.354 87.4688 123.53 93.7741C121.706 100.079 118.166 105.754 113.305 110.164C108.444 114.574 102.452 117.547 95.9999 118.75C93.8565 119.149 91.6801 119.344 89.4999 119.333Z" fill="#95E1D3"/>
<path d="M57.1667 121.5C56.359 121.485 55.5675 121.271 54.8622 120.877C54.1569 120.483 53.5595 119.921 53.1228 119.242C52.6862 118.562 52.4238 117.785 52.3587 116.98C52.2937 116.175 52.4281 115.366 52.75 114.625L59.0833 100.375C59.3191 99.8701 59.7438 99.4779 60.266 99.283C60.7882 99.0882 61.366 99.1063 61.875 99.3334C62.3771 99.5608 62.7686 99.9779 62.9638 100.493C63.1591 101.009 63.1421 101.581 62.9167 102.083L56.5417 116.333C56.4605 116.442 56.4167 116.573 56.4167 116.708C56.4167 116.844 56.4605 116.975 56.5417 117.083C56.6327 117.188 56.7522 117.263 56.8855 117.3C57.0188 117.337 57.16 117.334 57.2917 117.292L73.3333 111.583C73.59 111.485 73.8641 111.439 74.139 111.449C74.4138 111.458 74.6839 111.524 74.933 111.64C75.182 111.757 75.4049 111.923 75.5883 112.128C75.7716 112.333 75.9117 112.573 76 112.833C76.1876 113.353 76.1614 113.925 75.927 114.426C75.6926 114.926 75.2692 115.312 74.75 115.5L58.8333 121.208C58.3002 121.406 57.7353 121.505 57.1667 121.5Z" fill="#95E1D3"/>
</svg>
