<svg width="70" height="70" viewBox="0 0 70 70" fill="none" xmlns="http://www.w3.org/2000/svg">
<path d="M51.0417 61.25H18.9583C16.2509 61.25 13.6544 60.1745 11.74 58.2601C9.82552 56.3456 8.75 53.7491 8.75 51.0417V18.9583C8.75 16.2509 9.82552 13.6544 11.74 11.74C13.6544 9.82552 16.2509 8.75 18.9583 8.75H51.0417C53.7491 8.75 56.3456 9.82552 58.2601 11.74C60.1745 13.6544 61.25 16.2509 61.25 18.9583V51.0417C61.25 53.7491 60.1745 56.3456 58.2601 58.2601C56.3456 60.1745 53.7491 61.25 51.0417 61.25V61.25ZM18.9583 11.6667C17.0245 11.6667 15.1698 12.4349 13.8023 13.8023C12.4349 15.1698 11.6667 17.0245 11.6667 18.9583V51.0417C11.6667 52.9755 12.4349 54.8302 13.8023 56.1977C15.1698 57.5651 17.0245 58.3333 18.9583 58.3333H51.0417C52.9755 58.3333 54.8302 57.5651 56.1977 56.1977C57.5651 54.8302 58.3333 52.9755 58.3333 51.0417V18.9583C58.3333 17.0245 57.5651 15.1698 56.1977 13.8023C54.8302 12.4349 52.9755 11.6667 51.0417 11.6667H18.9583Z" fill="#95E1D3"/>
<path d="M10.2084 49.0292C9.9959 49.0315 9.78568 48.9854 9.59365 48.8945C9.40162 48.8035 9.23282 48.67 9.10003 48.5042C8.97495 48.3598 8.88009 48.1918 8.82105 48.0101C8.76202 47.8284 8.74001 47.6367 8.75632 47.4464C8.77263 47.256 8.82694 47.0709 8.91604 46.9019C9.00513 46.7329 9.1272 46.5835 9.27503 46.4625L22.9834 35C25.0624 33.276 27.7399 32.4461 30.4295 32.6921C33.1191 32.9381 35.6016 34.2399 37.3334 36.3125L40.6 40.2208C41.2202 40.9681 41.9839 41.5834 42.846 42.0303C43.7081 42.4773 44.6511 42.7468 45.6192 42.8229C46.5872 42.899 47.5607 42.7803 48.4821 42.4736C49.4035 42.1669 50.254 41.6786 50.9834 41.0375L58.8292 34.1833C59.1253 33.9329 59.5074 33.808 59.8943 33.8353C60.2811 33.8625 60.642 34.0397 60.9 34.3292C61.0268 34.4717 61.1238 34.6382 61.1852 34.8188C61.2466 34.9994 61.2712 35.1905 61.2576 35.3808C61.244 35.571 61.1925 35.7567 61.106 35.9267C61.0196 36.0967 60.8999 36.2478 60.7542 36.3708L52.9084 43.225C51.8859 44.1287 50.6921 44.8176 49.3981 45.2507C48.1041 45.6838 46.7361 45.8524 45.3757 45.7462C44.0152 45.6401 42.69 45.2615 41.4787 44.633C40.2675 44.0045 39.195 43.1388 38.325 42.0875L35 38.2667C34.3896 37.5324 33.6404 36.9258 32.7953 36.4814C31.9502 36.0371 31.0257 35.7637 30.0748 35.6771C29.1239 35.5904 28.1653 35.692 27.2538 35.9762C26.3422 36.2604 25.4957 36.7216 24.7625 37.3333L11.0542 48.7083C10.8097 48.8957 10.5156 49.0072 10.2084 49.0292V49.0292Z" fill="#95E1D3"/>
</svg>
