<svg width="70" height="70" viewBox="0 0 70 70" fill="none" xmlns="http://www.w3.org/2000/svg">
<path d="M30.1584 51.1875C29.863 51.1933 29.5726 51.111 29.3242 50.9511C29.0758 50.7912 28.8806 50.561 28.7635 50.2898C28.6464 50.0185 28.6128 49.7185 28.6668 49.4281C28.7209 49.1377 28.8602 48.8699 29.067 48.6589C29.2739 48.448 29.5388 48.3034 29.8281 48.2436C30.1174 48.1838 30.418 48.2115 30.6915 48.3232C30.965 48.4348 31.1991 48.6254 31.3639 48.8707C31.5286 49.1159 31.6167 49.4046 31.6167 49.7C31.6168 50.0895 31.4641 50.4635 31.1914 50.7417C30.9187 51.0198 30.5478 51.1799 30.1584 51.1875Z" fill="#95E1D3"/>
<path d="M40.8625 51.1875C41.6679 51.1875 42.3208 50.5346 42.3208 49.7292C42.3208 48.9238 41.6679 48.2708 40.8625 48.2708C40.0571 48.2708 39.4042 48.9238 39.4042 49.7292C39.4042 50.5346 40.0571 51.1875 40.8625 51.1875Z" fill="#95E1D3"/>
<path d="M41.6209 62.65H28.3792C24.9446 62.65 21.6508 61.2856 19.2222 58.857C16.7936 56.4284 15.4292 53.1346 15.4292 49.7C15.4292 46.2654 16.7936 42.9716 19.2222 40.543C21.6508 38.1144 24.9446 36.75 28.3792 36.75H41.6209C45.0554 36.75 48.3493 38.1144 50.7779 40.543C53.2065 42.9716 54.5709 46.2654 54.5709 49.7C54.5709 53.1346 53.2065 56.4284 50.7779 58.857C48.3493 61.2856 45.0554 62.65 41.6209 62.65ZM28.3792 39.6667C27.0616 39.6667 25.7569 39.9262 24.5396 40.4304C23.3223 40.9346 22.2162 41.6737 21.2846 42.6054C20.3529 43.537 19.6138 44.6431 19.1096 45.8604C18.6054 47.0777 18.3459 48.3824 18.3459 49.7C18.3459 51.0176 18.6054 52.3223 19.1096 53.5396C19.6138 54.7569 20.3529 55.863 21.2846 56.7946C22.2162 57.7263 23.3223 58.4654 24.5396 58.9696C25.7569 59.4738 27.0616 59.7333 28.3792 59.7333H41.6209C44.2819 59.7333 46.8339 58.6763 48.7155 56.7946C50.5971 54.913 51.6542 52.361 51.6542 49.7C51.6542 47.039 50.5971 44.487 48.7155 42.6054C46.8339 40.7237 44.2819 39.6667 41.6209 39.6667H28.3792Z" fill="#95E1D3"/>
<path d="M58.3334 43.925H50.5167C50.1299 43.925 49.759 43.7714 49.4855 43.4979C49.212 43.2244 49.0584 42.8534 49.0584 42.4667C49.0584 42.0799 49.212 41.709 49.4855 41.4355C49.759 41.162 50.1299 41.0083 50.5167 41.0083H58.3334C59.7389 41.0007 61.0846 40.4389 62.0785 39.4451C63.0723 38.4512 63.634 37.1055 63.6417 35.7C63.634 28.9621 60.9559 22.5019 56.1942 17.7347C51.4325 12.9676 44.9754 10.2821 38.2375 10.2667H32.0834C25.3404 10.2744 18.8758 12.9564 14.1078 17.7244C9.3398 22.4924 6.65774 28.957 6.65002 35.7C6.65768 37.1055 7.21941 38.4512 8.21326 39.4451C9.20711 40.4389 10.5529 41.0007 11.9584 41.0083H19.4834C19.8701 41.0083 20.2411 41.162 20.5146 41.4355C20.788 41.709 20.9417 42.0799 20.9417 42.4667C20.9417 42.8534 20.788 43.2244 20.5146 43.4979C20.2411 43.7714 19.8701 43.925 19.4834 43.925H11.8125C9.63112 43.925 7.53906 43.0584 5.99657 41.516C4.45408 39.9735 3.58752 37.8814 3.58752 35.7C3.59133 31.9658 4.33206 28.2691 5.76725 24.8217C7.20245 21.3743 9.30389 18.2441 11.9511 15.6104C14.5984 12.9767 17.7393 10.8914 21.194 9.47389C24.6487 8.0564 28.3492 7.33465 32.0834 7.35H38.2375C45.7439 7.36542 52.9385 10.3542 58.2464 15.662C63.5542 20.9699 66.5429 28.1644 66.5584 35.6708C66.5584 37.8549 65.6927 39.95 64.1511 41.4971C62.6094 43.0442 60.5174 43.9173 58.3334 43.925Z" fill="#95E1D3"/>
<path d="M9.24582 35.9625C7.65304 35.9377 6.07941 35.6111 4.60832 35C4.43011 34.9293 4.26759 34.8241 4.13006 34.6905C3.99253 34.5569 3.8827 34.3975 3.80685 34.2214C3.73099 34.0453 3.69061 33.856 3.688 33.6643C3.68539 33.4726 3.72062 33.2822 3.79165 33.1042C3.85591 32.9245 3.95621 32.7598 4.0864 32.6204C4.2166 32.4809 4.37393 32.3695 4.54874 32.293C4.72356 32.2165 4.91216 32.1766 5.10296 32.1756C5.29377 32.1747 5.48276 32.2127 5.65832 32.2875C6.8038 32.726 8.01928 32.9533 9.24582 32.9583C11.2594 32.9441 13.2162 32.2891 14.8325 31.0882C16.4488 29.8872 17.6407 28.2027 18.2354 26.2789C18.8301 24.3551 18.7967 22.2918 18.1401 20.3883C17.4834 18.4847 16.2377 16.8397 14.5833 15.6917C14.3145 15.4569 14.1411 15.1318 14.0959 14.7777C14.0507 14.4237 14.1369 14.0654 14.3382 13.7707C14.5395 13.476 14.8418 13.2653 15.188 13.1785C15.5342 13.0918 15.9002 13.135 16.2167 13.3C18.4138 14.7866 20.0761 16.9388 20.9591 19.4403C21.8422 21.9418 21.8995 24.6606 21.1226 27.1971C20.3456 29.7336 18.7755 31.9539 16.6429 33.5317C14.5103 35.1095 11.9278 35.9615 9.27499 35.9625H9.24582Z" fill="#95E1D3"/>
<path d="M64.9251 35.9042C60.3674 35.5594 56.107 33.5096 52.9933 30.1635C49.8797 26.8174 48.1414 22.4207 48.1251 17.85C48.1189 15.6457 48.5245 13.4596 49.3209 11.4042C49.3916 11.226 49.4968 11.0635 49.6304 10.9259C49.764 10.7884 49.9234 10.6786 50.0995 10.6027C50.2756 10.5269 50.4649 10.4865 50.6566 10.4839C50.8483 10.4813 51.0386 10.5165 51.2167 10.5875C51.3964 10.6518 51.561 10.7521 51.7005 10.8823C51.84 11.0125 51.9514 11.1698 52.0279 11.3446C52.1044 11.5194 52.1443 11.708 52.1453 11.8988C52.1462 12.0896 52.1082 12.2786 52.0334 12.4542C51.2201 14.653 50.9265 17.0101 51.1757 19.3413C51.4249 21.6724 52.2101 23.9142 53.4699 25.8914C54.7296 27.8686 56.4297 29.5274 58.4372 30.7383C60.4448 31.9491 62.7052 32.679 65.0417 32.8709C65.4285 32.8709 65.7994 33.0245 66.0729 33.298C66.3464 33.5715 66.5001 33.9424 66.5001 34.3292C66.5001 34.716 66.3464 35.0869 66.0729 35.3604C65.7994 35.6339 65.4285 35.7875 65.0417 35.7875L64.9251 35.9042Z" fill="#95E1D3"/>
</svg>
