<svg width="70" height="70" viewBox="0 0 70 70" fill="none" xmlns="http://www.w3.org/2000/svg">
<path d="M35 53.1125C34.6153 53.107 34.2484 52.9498 33.9792 52.675L17.3542 36.05C17.2175 35.9144 17.109 35.7531 17.0349 35.5754C16.9609 35.3977 16.9228 35.2071 16.9228 35.0146C16.9228 34.8221 16.9609 34.6315 17.0349 34.4538C17.109 34.276 17.2175 34.1147 17.3542 33.9792L41.825 9.18751C41.9471 9.03746 42.1037 8.91926 42.2815 8.84306C42.4593 8.76686 42.653 8.73493 42.8458 8.75001H59.6167C60.0011 8.75747 60.3677 8.91352 60.6396 9.18541C60.9115 9.45729 61.0675 9.8239 61.075 10.2083L61.25 26.8042C61.2546 27.0001 61.2181 27.1947 61.1427 27.3756C61.0673 27.5565 60.9548 27.7195 60.8125 27.8542L36.0208 52.675C35.7498 52.9472 35.384 53.1039 35 53.1125ZM20.4167 35L35 49.5833L58.3333 26.25L58.1583 11.6667H43.575L20.4167 35Z" fill="#95E1D3"/>
<path d="M43.1375 61.25C42.7582 61.2464 42.3939 61.1007 42.1167 60.8417L9.18754 27.9125C9.05085 27.7769 8.94236 27.6156 8.86832 27.4379C8.79428 27.2602 8.75616 27.0696 8.75616 26.8771C8.75616 26.6846 8.79428 26.494 8.86832 26.3163C8.94236 26.1385 9.05085 25.9772 9.18754 25.8417C9.31847 25.7022 9.4766 25.591 9.65218 25.515C9.82775 25.439 10.017 25.3997 10.2084 25.3997C10.3997 25.3997 10.589 25.439 10.7646 25.515C10.9401 25.591 11.0983 25.7022 11.2292 25.8417L44.1875 58.7708C44.4566 59.0484 44.6071 59.4197 44.6071 59.8063C44.6071 60.1928 44.4566 60.5642 44.1875 60.8417C43.8999 61.1026 43.5259 61.248 43.1375 61.25Z" fill="#95E1D3"/>
<path d="M20.4167 61.075C20.0225 61.0741 19.6449 60.9167 19.3667 60.6375L9.24583 50.6625C9.0935 50.5263 8.97085 50.3602 8.88554 50.1746C8.80024 49.9889 8.7541 49.7876 8.75 49.5834C8.75 48.7958 8.75 48.6792 20.4167 37.2167C20.5522 37.08 20.7135 36.9715 20.8912 36.8975C21.069 36.8234 21.2596 36.7853 21.4521 36.7853C21.6446 36.7853 21.8352 36.8234 22.0129 36.8975C22.1906 36.9715 22.3519 37.08 22.4875 37.2167C22.7566 37.4942 22.907 37.8656 22.907 38.2521C22.907 38.6386 22.7566 39.01 22.4875 39.2875C19.3375 42.5542 14.2917 47.5417 12.3083 49.5834L20.4167 57.5458L30.7125 47.2209C30.9871 46.9462 31.3596 46.792 31.7479 46.792C32.1363 46.792 32.5087 46.9462 32.7833 47.2209C33.0579 47.4955 33.2122 47.8679 33.2122 48.2563C33.2122 48.6446 33.0579 49.0171 32.7833 49.2917L21.2917 60.6375C21.0591 60.8797 20.75 61.0343 20.4167 61.075Z" fill="#95E1D3"/>
<path d="M35 36.4583C34.8087 36.4607 34.6191 36.4229 34.4433 36.3476C34.2675 36.2722 34.1094 36.1609 33.9792 36.0208C33.8397 35.8899 33.7285 35.7318 33.6525 35.5562C33.5764 35.3806 33.5372 35.1913 33.5372 35C33.5372 34.8087 33.5764 34.6194 33.6525 34.4438C33.7285 34.2682 33.8397 34.1101 33.9792 33.9792L45.6458 22.3125C45.7799 22.1784 45.939 22.0721 46.1142 21.9995C46.2893 21.927 46.4771 21.8896 46.6667 21.8896C46.8562 21.8896 47.044 21.927 47.2191 21.9995C47.3943 22.0721 47.5534 22.1784 47.6875 22.3125C47.8216 22.4465 47.9279 22.6057 48.0004 22.7809C48.073 22.956 48.1103 23.1437 48.1103 23.3333C48.1103 23.5229 48.073 23.7106 48.0004 23.8858C47.9279 24.061 47.8216 24.2201 47.6875 24.3542L36.0208 36.0208C35.8906 36.1609 35.7325 36.2722 35.5567 36.3476C35.3809 36.4229 35.1913 36.4607 35 36.4583Z" fill="#95E1D3"/>
</svg>
