<svg width="70" height="70" viewBox="0 0 70 70" fill="none" xmlns="http://www.w3.org/2000/svg">
<path d="M35 62.7083C29.5198 62.7083 24.1627 61.0833 19.6061 58.0386C15.0495 54.994 11.498 50.6665 9.40087 45.6035C7.30369 40.5405 6.75498 34.9692 7.82411 29.5944C8.89324 24.2195 11.5322 19.2823 15.4073 15.4072C19.2824 11.5322 24.2195 8.89319 29.5944 7.82406C34.9693 6.75493 40.5405 7.30365 45.6035 9.40083C50.6666 11.498 54.994 15.0494 58.0387 19.6061C61.0833 24.1627 62.7084 29.5198 62.7084 35C62.7006 42.3463 59.7789 49.3896 54.5843 54.5842C49.3896 59.7789 42.3464 62.7006 35 62.7083ZM35 10.2083C30.0967 10.2083 25.3035 11.6623 21.2265 14.3865C17.1496 17.1106 13.9719 20.9825 12.0955 25.5126C10.2191 30.0427 9.72814 35.0275 10.6847 39.8366C11.6413 44.6457 14.0025 49.0632 17.4697 52.5303C20.9369 55.9975 25.3543 58.3587 30.1634 59.3153C34.9725 60.2719 39.9573 59.7809 44.4874 57.9045C49.0175 56.0281 52.8894 52.8505 55.6135 48.7735C58.3377 44.6965 59.7917 39.9033 59.7917 35C59.784 28.4272 57.1695 22.1258 52.5219 17.4782C47.8742 12.8305 41.5728 10.216 35 10.2083Z" fill="#95E1D3"/>
<path d="M35 50.1958C31.9946 50.1958 29.0566 49.3046 26.5577 47.6349C24.0587 45.9651 22.1111 43.5919 20.9609 40.8152C19.8108 38.0385 19.5099 34.9831 20.0962 32.0354C20.6825 29.0877 22.1298 26.3801 24.255 24.2549C26.3801 22.1297 29.0878 20.6825 32.0355 20.0961C34.9832 19.5098 38.0386 19.8107 40.8152 20.9609C43.5919 22.111 45.9652 24.0587 47.6349 26.5576C49.3047 29.0566 50.1959 31.9945 50.1959 35C50.1882 39.0278 48.5847 42.8884 45.7366 45.7365C42.8885 48.5846 39.0279 50.1881 35 50.1958ZM35 22.7208C32.5715 22.7208 30.1974 23.441 28.1781 24.7902C26.1588 26.1395 24.5849 28.0572 23.6556 30.301C22.7262 32.5447 22.483 35.0136 22.9568 37.3955C23.4306 39.7775 24.6001 41.9654 26.3174 43.6827C28.0346 45.3999 30.2226 46.5694 32.6045 47.0432C34.9864 47.517 37.4553 47.2738 39.6991 46.3445C41.9428 45.4151 43.8605 43.8412 45.2098 41.8219C46.559 39.8026 47.2792 37.4286 47.2792 35C47.2715 31.7457 45.9753 28.6269 43.6742 26.3258C41.3731 24.0247 38.2543 22.7285 35 22.7208Z" fill="#95E1D3"/>
<path d="M61.25 36.4583H8.75002C8.36325 36.4583 7.99231 36.3047 7.71882 36.0312C7.44533 35.7577 7.29169 35.3868 7.29169 35C7.29169 34.6132 7.44533 34.2423 7.71882 33.9688C7.99231 33.6953 8.36325 33.5417 8.75002 33.5417H61.25C61.6368 33.5417 62.0077 33.6953 62.2812 33.9688C62.5547 34.2423 62.7084 34.6132 62.7084 35C62.7084 35.3868 62.5547 35.7577 62.2812 36.0312C62.0077 36.3047 61.6368 36.4583 61.25 36.4583Z" fill="#95E1D3"/>
<path d="M35 62.7083C34.6132 62.7083 34.2423 62.5547 33.9688 62.2812C33.6953 62.0077 33.5417 61.6368 33.5417 61.25V8.74999C33.5417 8.36322 33.6953 7.99228 33.9688 7.71879C34.2423 7.4453 34.6132 7.29166 35 7.29166C35.3868 7.29166 35.7577 7.4453 36.0312 7.71879C36.3047 7.99228 36.4584 8.36322 36.4584 8.74999V61.25C36.4584 61.6368 36.3047 62.0077 36.0312 62.2812C35.7577 62.5547 35.3868 62.7083 35 62.7083Z" fill="#95E1D3"/>
</svg>
