<svg width="70" height="70" viewBox="0 0 70 70" fill="none" xmlns="http://www.w3.org/2000/svg">
<path d="M26.6876 32.0834H12.1042C10.8097 32.0834 9.56777 31.5711 8.64967 30.6585C7.73158 29.7459 7.21193 28.507 7.20422 27.2125V12.6292C7.21188 11.332 7.73058 10.0901 8.64786 9.17282C9.56513 8.25555 10.807 7.73684 12.1042 7.72919H26.6876C27.9848 7.73684 29.2266 8.25555 30.1439 9.17282C31.0612 10.0901 31.5799 11.332 31.5876 12.6292V27.2125C31.5799 28.507 31.0602 29.7459 30.1421 30.6585C29.224 31.5711 27.9821 32.0834 26.6876 32.0834V32.0834ZM12.1042 10.6167C11.5806 10.6242 11.0805 10.8356 10.7101 11.2059C10.3398 11.5763 10.1284 12.0764 10.1209 12.6V27.1834C10.1209 27.7094 10.3298 28.2138 10.7018 28.5858C11.0737 28.9577 11.5782 29.1667 12.1042 29.1667H26.6876C27.2136 29.1667 27.718 28.9577 28.09 28.5858C28.4619 28.2138 28.6709 27.7094 28.6709 27.1834V12.6C28.6634 12.0764 28.452 11.5763 28.0817 11.2059C27.7113 10.8356 27.2112 10.6242 26.6876 10.6167H12.1042Z" fill="#95E1D3"/>
<path d="M57.8959 32.0833H43.3126C42.013 32.0833 40.7667 31.5671 39.8478 30.6482C38.9288 29.7292 38.4126 28.4829 38.4126 27.1833V12.6C38.4203 11.3028 38.939 10.0609 39.8562 9.14365C40.7735 8.22637 42.0154 7.70767 43.3126 7.70001H57.8959C59.1931 7.70767 60.435 8.22637 61.3523 9.14365C62.2696 10.0609 62.7883 11.3028 62.7959 12.6V27.1833C62.7959 28.4829 62.2797 29.7292 61.3608 30.6482C60.4418 31.5671 59.1955 32.0833 57.8959 32.0833V32.0833ZM43.3126 10.6167C42.7889 10.6242 42.2888 10.8356 41.9185 11.2059C41.5482 11.5762 41.3368 12.0763 41.3293 12.6V27.1833C41.3293 27.7094 41.5382 28.2138 41.9102 28.5858C42.2821 28.9577 42.7866 29.1667 43.3126 29.1667H57.8959C58.4219 29.1667 58.9264 28.9577 59.2984 28.5858C59.6703 28.2138 59.8793 27.7094 59.8793 27.1833V12.6C59.8717 12.0763 59.6603 11.5762 59.29 11.2059C58.9197 10.8356 58.4196 10.6242 57.8959 10.6167H43.3126Z" fill="#95E1D3"/>
<path d="M26.6876 62.2709H12.1042C10.807 62.2632 9.56513 61.7445 8.64786 60.8272C7.73058 59.9099 7.21188 58.6681 7.20422 57.3709V42.7875C7.21193 41.493 7.73158 40.2542 8.64967 39.3415C9.56777 38.4289 10.8097 37.9167 12.1042 37.9167H26.6876C27.9871 37.9167 29.2335 38.4329 30.1524 39.3519C31.0713 40.2708 31.5876 41.5171 31.5876 42.8167V57.4C31.5723 58.6922 31.0502 59.9266 30.1338 60.8376C29.2173 61.7486 27.9798 62.2633 26.6876 62.2709V62.2709ZM12.1042 40.8334C11.5782 40.8334 11.0737 41.0423 10.7018 41.4143C10.3298 41.7862 10.1209 42.2907 10.1209 42.8167V57.4C10.1284 57.9237 10.3398 58.4238 10.7101 58.7941C11.0805 59.1644 11.5806 59.3758 12.1042 59.3834H26.6876C27.2112 59.3758 27.7113 59.1644 28.0817 58.7941C28.452 58.4238 28.6634 57.9237 28.6709 57.4V42.8167C28.6709 42.2907 28.4619 41.7862 28.09 41.4143C27.718 41.0423 27.2136 40.8334 26.6876 40.8334H12.1042Z" fill="#95E1D3"/>
<path d="M57.8959 62.2709H43.3126C42.0154 62.2632 40.7735 61.7445 39.8562 60.8272C38.939 59.9099 38.4203 58.6681 38.4126 57.3709V42.7875C38.4203 41.493 38.94 40.2542 39.858 39.3415C40.7761 38.4289 42.0181 37.9167 43.3126 37.9167H57.8959C59.1955 37.9167 60.4418 38.4329 61.3608 39.3519C62.2797 40.2708 62.7959 41.5171 62.7959 42.8167V57.4C62.7807 58.6922 62.2586 59.9266 61.3421 60.8376C60.4257 61.7486 59.1881 62.2633 57.8959 62.2709V62.2709ZM43.3126 40.8042C42.7866 40.8042 42.2821 41.0131 41.9102 41.3851C41.5382 41.757 41.3293 42.2615 41.3293 42.7875V57.3709C41.3368 57.8945 41.5482 58.3946 41.9185 58.765C42.2888 59.1353 42.7889 59.3467 43.3126 59.3542H57.8959C58.4196 59.3467 58.9197 59.1353 59.29 58.765C59.6603 58.3946 59.8717 57.8945 59.8793 57.3709V42.7875C59.8793 42.2615 59.6703 41.757 59.2984 41.3851C58.9264 41.0131 58.4219 40.8042 57.8959 40.8042H43.3126Z" fill="#95E1D3"/>
</svg>
