<svg width="24" height="24" viewBox="0 0 24 24" fill="none" xmlns="http://www.w3.org/2000/svg">
<path d="M16.39 15.3101H12.2C12.0674 15.3101 11.9402 15.2574 11.8465 15.1636C11.7527 15.0698 11.7 14.9427 11.7 14.8101C11.7 14.6775 11.7527 14.5503 11.8465 14.4565C11.9402 14.3627 12.0674 14.3101 12.2 14.3101H16.39C16.5226 14.3101 16.6498 14.3627 16.7436 14.4565C16.8373 14.5503 16.89 14.6775 16.89 14.8101C16.89 14.9427 16.8373 15.0698 16.7436 15.1636C16.6498 15.2574 16.5226 15.3101 16.39 15.3101Z" fill="white"/>
<path d="M19.21 15.0001C19.1508 15.0142 19.0892 15.0142 19.03 15.0001C18.9684 14.9779 18.9118 14.9436 18.8637 14.8992C18.8156 14.8547 18.7768 14.8011 18.7498 14.7414C18.7228 14.6817 18.708 14.6172 18.7063 14.5518C18.7046 14.4863 18.7161 14.4211 18.74 14.3601L21.12 8.00014C21.1671 7.87735 21.2607 7.77805 21.3805 7.72377C21.5003 7.66949 21.6366 7.66459 21.76 7.71014C21.8837 7.75945 21.9838 7.85436 22.0397 7.9753C22.0955 8.09624 22.1027 8.23399 22.06 8.36014L19.68 14.6901C19.6397 14.7815 19.5739 14.8593 19.4906 14.9143C19.4072 14.9692 19.3098 14.999 19.21 15.0001Z" fill="white"/>
<path d="M9.00001 15.1901C8.89568 15.1908 8.79383 15.1582 8.7093 15.0971C8.62476 15.0359 8.56195 14.9494 8.53001 14.8501L5.39001 5.31006H2.39001C2.25741 5.31006 2.13023 5.25738 2.03646 5.16361C1.94269 5.06984 1.89001 4.94267 1.89001 4.81006C1.89257 4.67825 1.94608 4.55256 2.03929 4.45934C2.13251 4.36612 2.25821 4.31262 2.39001 4.31006H5.75001C5.85362 4.31227 5.9541 4.34599 6.03806 4.40673C6.12203 4.46747 6.18549 4.55235 6.22001 4.65006L9.51002 14.5301C9.53193 14.5917 9.54127 14.6572 9.53748 14.7225C9.53369 14.7878 9.51685 14.8518 9.48796 14.9105C9.45906 14.9692 9.4187 15.0215 9.36924 15.0644C9.31979 15.1073 9.26225 15.1398 9.20001 15.1601C9.13649 15.1851 9.06809 15.1954 9.00001 15.1901Z" fill="white"/>
<path d="M10.54 19.6899C9.9467 19.6899 9.36668 19.514 8.87333 19.1844C8.37998 18.8547 7.99546 18.3862 7.7684 17.838C7.54134 17.2898 7.48193 16.6866 7.59768 16.1047C7.71344 15.5227 7.99916 14.9882 8.41872 14.5686C8.83828 14.1491 9.37283 13.8633 9.95477 13.7476C10.5367 13.6318 11.1399 13.6912 11.6881 13.9183C12.2363 14.1454 12.7048 14.5299 13.0344 15.0232C13.3641 15.5166 13.54 16.0966 13.54 16.6899C13.54 17.4856 13.224 18.2487 12.6614 18.8113C12.0988 19.3739 11.3357 19.6899 10.54 19.6899ZM10.54 14.6899C10.1445 14.6899 9.7578 14.8072 9.4289 15.027C9.1 15.2468 8.84366 15.5591 8.69228 15.9246C8.54091 16.29 8.5013 16.6922 8.57847 17.0801C8.65564 17.4681 8.84612 17.8245 9.12583 18.1042C9.40553 18.3839 9.7619 18.5743 10.1499 18.6515C10.5378 18.7287 10.94 18.6891 11.3054 18.5377C11.6709 18.3863 11.9832 18.13 12.203 17.8011C12.4227 17.4722 12.54 17.0855 12.54 16.6899C12.54 16.1595 12.3293 15.6508 11.9543 15.2757C11.5792 14.9007 11.0705 14.6899 10.54 14.6899Z" fill="white"/>
<path d="M18.05 19.6899C17.4566 19.6899 16.8766 19.514 16.3833 19.1844C15.8899 18.8547 15.5054 18.3862 15.2784 17.838C15.0513 17.2898 14.9919 16.6866 15.1076 16.1047C15.2234 15.5227 15.5091 14.9882 15.9287 14.5686C16.3482 14.1491 16.8828 13.8633 17.4647 13.7476C18.0467 13.6318 18.6499 13.6912 19.198 13.9183C19.7462 14.1454 20.2148 14.5299 20.5444 15.0232C20.874 15.5166 21.05 16.0966 21.05 16.6899C21.05 17.4856 20.7339 18.2487 20.1713 18.8113C19.6087 19.3739 18.8456 19.6899 18.05 19.6899ZM18.05 14.6899C17.6544 14.6899 17.2677 14.8072 16.9388 15.027C16.61 15.2468 16.3536 15.5591 16.2022 15.9246C16.0509 16.29 16.0112 16.6922 16.0884 17.0801C16.1656 17.4681 16.3561 17.8245 16.6358 18.1042C16.9155 18.3839 17.2718 18.5743 17.6598 18.6515C18.0478 18.7287 18.4499 18.6891 18.8154 18.5377C19.1808 18.3863 19.4932 18.13 19.7129 17.8011C19.9327 17.4722 20.05 17.0855 20.05 16.6899C20.05 16.1595 19.8393 15.6508 19.4642 15.2757C19.0891 14.9007 18.5804 14.6899 18.05 14.6899Z" fill="white"/>
</svg>
