<svg width="24" height="24" viewBox="0 0 24 24" fill="none" xmlns="http://www.w3.org/2000/svg">
<path d="M9.74998 17C8.31521 17 6.91271 16.5743 5.72002 15.7768C4.52733 14.9792 3.5981 13.8457 3.04996 12.5198C2.50181 11.1939 2.35941 9.73513 2.64078 8.32823C2.92215 6.92132 3.61463 5.62953 4.63056 4.6164C5.6465 3.60327 6.94019 2.91436 8.34787 2.63688C9.75555 2.3594 11.2139 2.50583 12.5383 3.05763C13.8627 3.60944 14.9936 4.5418 15.7879 5.73668C16.5821 6.93157 17.0039 8.33524 17 9.77C16.992 11.6885 16.225 13.5259 14.8665 14.8807C13.508 16.2354 11.6685 16.9974 9.74998 17ZM9.74998 3.5C8.5147 3.50001 7.30712 3.86607 6.27975 4.55195C5.25238 5.23782 4.4513 6.21276 3.97767 7.35364C3.50404 8.49451 3.3791 9.75015 3.61864 10.962C3.85819 12.1738 4.45146 13.2875 5.32354 14.1624C6.19561 15.0372 7.30739 15.6341 8.51845 15.8775C9.72951 16.1209 10.9855 16 12.1279 15.53C13.2703 15.06 14.2478 14.262 14.937 13.2369C15.6261 12.2117 15.996 11.0053 16 9.77C16 8.1124 15.3415 6.52269 14.1694 5.35059C12.9973 4.17848 11.4076 3.52 9.74998 3.52V3.5Z" fill="white"/>
<path d="M21 21.5199C20.9344 21.5207 20.8694 21.5078 20.8091 21.4819C20.7488 21.4561 20.6946 21.4179 20.65 21.3699L14.17 14.8899C14.0772 14.7971 14.025 14.6712 14.025 14.5399C14.025 14.4086 14.0772 14.2827 14.17 14.1899C14.2628 14.0971 14.3887 14.0449 14.52 14.0449C14.6513 14.0449 14.7772 14.0971 14.87 14.1899L21.35 20.6699C21.3978 20.7148 21.436 20.769 21.462 20.8292C21.4881 20.8894 21.5015 20.9543 21.5015 21.0199C21.5015 21.0855 21.4881 21.1504 21.462 21.2106C21.436 21.2708 21.3978 21.325 21.35 21.3699C21.3054 21.4179 21.2511 21.4561 21.1909 21.4819C21.1306 21.5078 21.0656 21.5207 21 21.5199Z" fill="white"/>
</svg>
