<svg width="24" height="24" fill="none" xmlns="http://www.w3.org/2000/svg"><path d="M12 .571C5.688.571.571 5.688.571 12S5.688 23.428 12 23.428 23.429 18.312 23.429 12C23.429 5.688 18.312.57 12 .57Zm0 1.656c2.49 0 4.762.932 6.488 2.464-1.268 1.673-3.194 2.787-5.125 3.54A50.893 50.893 0 0 0 9.698 2.5 9.79 9.79 0 0 1 12 2.227H12Zm-4.158.926c1.275 1.906 2.509 3.674 3.636 5.674-2.851.74-6.073 1.183-9.05 1.19a9.79 9.79 0 0 1 5.414-6.863v-.001Zm11.73 2.669a9.734 9.734 0 0 1 2.2 6.113 22.927 22.927 0 0 0-6.797-.331c-.257-.642-.57-1.252-.868-1.909 1.973-.796 4.083-2.158 5.465-3.874Zm-7.3 4.517c.245.52.528 1.072.794 1.636-3.183 1.404-6.568 3.28-8.325 6.567a9.739 9.739 0 0 1-2.509-6.828c3.409-.016 6.754-.443 10.04-1.375Zm5.165 2.665c1.422 0 2.838.183 4.214.543a9.772 9.772 0 0 1-4.198 6.564c-.525-2.386-1.025-4.669-1.909-6.97a13.12 13.12 0 0 1 1.892-.138Zm4.265.177-.021.166c.008-.056.014-.11.02-.166Zm-7.966.406c.9 2.327 1.607 4.904 2.082 7.412a9.74 9.74 0 0 1-3.817.774 9.73 9.73 0 0 1-5.998-2.057 14.533 14.533 0 0 1 7.732-6.129h.001Z" fill="#95E1D3"/></svg>