<svg width="42" height="42" fill="none" xmlns="http://www.w3.org/2000/svg"><path d="M21 39.218a4.341 4.341 0 0 1-3.325-1.54l-1.54-1.75A2.641 2.641 0 0 0 14 35l-2.345.21a4.375 4.375 0 0 1-4.725-4.707L7 28.105a2.608 2.608 0 0 0-.928-2.205l-1.75-1.522a4.358 4.358 0 0 1 0-6.668l1.75-1.54A2.643 2.643 0 0 0 7 14l-.175-2.398a4.375 4.375 0 0 1 4.707-4.725L13.895 7a2.608 2.608 0 0 0 2.205-.858l1.522-1.75A4.358 4.358 0 0 1 21 2.782a4.34 4.34 0 0 1 3.325 1.54l1.54 1.75A2.678 2.678 0 0 0 28 7l2.345-.21a4.375 4.375 0 0 1 4.725 4.708L35 13.895a2.61 2.61 0 0 0 .927 2.205l1.75 1.522a4.356 4.356 0 0 1 0 6.668l-1.75 1.54A2.644 2.644 0 0 0 35 28l.21 2.363a4.374 4.374 0 0 1-4.708 4.724L28.105 35a2.623 2.623 0 0 0-2.205.928l-1.523 1.75a4.357 4.357 0 0 1-3.325 1.557L21 39.218Zm-6.825-5.968a4.339 4.339 0 0 1 3.325 1.54l1.54 1.75a2.573 2.573 0 0 0 1.995.928 2.693 2.693 0 0 0 2.012-.928l1.523-1.75a4.27 4.27 0 0 1 3.675-1.54l2.362.175a2.573 2.573 0 0 0 2.065-.752 2.642 2.642 0 0 0 .753-2.083l-.175-2.398a4.324 4.324 0 0 1 1.505-3.692l1.75-1.54a2.573 2.573 0 0 0 .962-1.96 2.695 2.695 0 0 0-.927-2.012l-1.75-1.523a4.287 4.287 0 0 1-1.54-3.71l.175-2.363a2.59 2.59 0 0 0-1.71-2.671c-.36-.13-.744-.18-1.125-.146l-2.398.175A4.27 4.27 0 0 1 24.5 7.245l-1.54-1.75A2.572 2.572 0 0 0 21 4.532a2.694 2.694 0 0 0-2.013.928l-1.522 1.75a4.305 4.305 0 0 1-3.71 1.54l-2.363-.175a2.59 2.59 0 0 0-2.065.752 2.642 2.642 0 0 0-.752 2.136l.175 2.345A4.322 4.322 0 0 1 7.245 17.5l-1.75 1.54A2.573 2.573 0 0 0 4.532 21a2.695 2.695 0 0 0 .928 2.012l1.75 1.523a4.287 4.287 0 0 1 1.54 3.71l-.175 2.363a2.59 2.59 0 0 0 1.71 2.671c.36.13.744.18 1.125.146l2.397-.175h.368Z" fill="#95E1D3"/><path d="M21 27.125a6.125 6.125 0 1 1 0-12.25 6.125 6.125 0 1 1 0 12.25Zm0-10.5a4.375 4.375 0 1 0 0 8.75 4.375 4.375 0 0 0 0-8.75Z" fill="#95E1D3"/></svg>