<svg width="70" height="70" fill="none" xmlns="http://www.w3.org/2000/svg"><path d="M26.688 32.083H12.104a4.9 4.9 0 0 1-4.9-4.87V12.628a4.93 4.93 0 0 1 4.9-4.9h14.584a4.93 4.93 0 0 1 4.9 4.9v14.583a4.9 4.9 0 0 1-4.9 4.871ZM12.104 10.617a2.013 2.013 0 0 0-1.983 1.983v14.583a1.983 1.983 0 0 0 1.983 1.984h14.584a1.984 1.984 0 0 0 1.983-1.984V12.6a2.013 2.013 0 0 0-1.983-1.983H12.104ZM57.896 32.083H43.313a4.9 4.9 0 0 1-4.9-4.9V12.6a4.93 4.93 0 0 1 4.9-4.9h14.583a4.93 4.93 0 0 1 4.9 4.9v14.583a4.9 4.9 0 0 1-4.9 4.9ZM43.313 10.617a2.012 2.012 0 0 0-1.984 1.983v14.583a1.983 1.983 0 0 0 1.984 1.984h14.583a1.984 1.984 0 0 0 1.983-1.984V12.6a2.013 2.013 0 0 0-1.983-1.983H43.313ZM26.688 62.27H12.104a4.93 4.93 0 0 1-4.9-4.9V42.789a4.9 4.9 0 0 1 4.9-4.871h14.584a4.9 4.9 0 0 1 4.9 4.9V57.4a4.93 4.93 0 0 1-4.9 4.87ZM12.104 40.834a1.983 1.983 0 0 0-1.983 1.984V57.4a2.012 2.012 0 0 0 1.983 1.983h14.584A2.013 2.013 0 0 0 28.67 57.4V42.817a1.983 1.983 0 0 0-1.983-1.984H12.104ZM57.896 62.27H43.313a4.93 4.93 0 0 1-4.9-4.9V42.789a4.9 4.9 0 0 1 4.9-4.871h14.583a4.9 4.9 0 0 1 4.9 4.9V57.4a4.929 4.929 0 0 1-4.9 4.87ZM43.313 40.805a1.983 1.983 0 0 0-1.984 1.983v14.584a2.013 2.013 0 0 0 1.984 1.983h14.583a2.012 2.012 0 0 0 1.983-1.983V42.787a1.983 1.983 0 0 0-1.983-1.983H43.313Z" fill="#95E1D3"/></svg>