<svg width="70" height="70" fill="none" xmlns="http://www.w3.org/2000/svg"><path d="M35 53.112a1.458 1.458 0 0 1-1.02-.437L17.353 36.05a1.46 1.46 0 0 1 0-2.07L41.825 9.187a1.196 1.196 0 0 1 1.02-.438h16.772a1.487 1.487 0 0 1 1.458 1.458l.175 16.596a1.4 1.4 0 0 1-.438 1.05L36.022 52.675a1.487 1.487 0 0 1-1.021.438ZM20.417 35 35 49.583 58.333 26.25l-.175-14.583H43.575L20.417 35Z" fill="#95E1D3"/><path d="M43.138 61.25a1.516 1.516 0 0 1-1.021-.408l-32.93-32.93a1.459 1.459 0 0 1 0-2.07 1.4 1.4 0 0 1 2.042 0L44.188 58.77a1.488 1.488 0 0 1 0 2.07c-.288.262-.662.407-1.05.409Z" fill="#95E1D3"/><path d="M20.417 61.075c-.395 0-.772-.158-1.05-.438L9.246 50.663a1.488 1.488 0 0 1-.496-1.08c0-.787 0-.904 11.667-12.366a1.457 1.457 0 0 1 2.49 1.035c0 .387-.15.758-.42 1.035-3.15 3.267-8.195 8.255-10.179 10.296l8.109 7.963L30.712 47.22a1.464 1.464 0 1 1 2.071 2.07L21.292 60.639a1.458 1.458 0 0 1-.875.437ZM35 36.458a1.37 1.37 0 0 1-1.02-.437 1.4 1.4 0 0 1 0-2.042l11.666-11.666a1.444 1.444 0 1 1 2.041 2.041L36.022 36.021a1.372 1.372 0 0 1-1.021.437Z" fill="#95E1D3"/></svg>