<svg width="70" height="70" fill="none" xmlns="http://www.w3.org/2000/svg"><path d="M35 62.708A27.708 27.708 0 1 1 62.708 35 27.738 27.738 0 0 1 35 62.708Zm0-52.5A24.791 24.791 0 1 0 59.792 35 24.82 24.82 0 0 0 35 10.208Z" fill="#95E1D3"/><path d="M35 50.196A15.196 15.196 0 1 1 50.196 35 15.225 15.225 0 0 1 35 50.196Zm0-27.475A12.28 12.28 0 1 0 47.28 35 12.308 12.308 0 0 0 35 22.72Z" fill="#95E1D3"/><path d="M61.25 36.458H8.75a1.458 1.458 0 1 1 0-2.916h52.5a1.458 1.458 0 1 1 0 2.916Z" fill="#95E1D3"/><path d="M35 62.708a1.458 1.458 0 0 1-1.458-1.458V8.75a1.458 1.458 0 1 1 2.916 0v52.5A1.458 1.458 0 0 1 35 62.708Z" fill="#95E1D3"/></svg>