<svg width="42" height="42" fill="none" xmlns="http://www.w3.org/2000/svg"><path d="M21 39.042A18.042 18.042 0 1 1 39.042 21 18.06 18.06 0 0 1 21 39.042Zm0-34.334A16.293 16.293 0 1 0 37.292 21 16.327 16.327 0 0 0 21 4.708Z" fill="#95E1D3"/><path d="M14.193 28a4.813 4.813 0 1 1 0-9.625 4.813 4.813 0 0 1 0 9.625Zm0-7.875a3.063 3.063 0 1 0 3.062 2.975 3.08 3.08 0 0 0-3.062-3.063v.088ZM27.808 28a4.813 4.813 0 1 1 0-9.625 4.813 4.813 0 0 1 0 9.625Zm0-7.875a3.062 3.062 0 1 0 3.062 3.063 3.064 3.064 0 0 0-3.063-3.15v.087ZM4.235 18.13a.875.875 0 0 1-.857-.7.892.892 0 0 1 .682-1.032c.193-.035 19.128-4.148 24.22-11.148a.875.875 0 0 1 1.225-.193.893.893 0 0 1 .193 1.225c-5.495 7.543-24.448 11.655-25.27 11.83l-.193.018Z" fill="#95E1D3"/><path d="M33.25 15.225a35.264 35.264 0 0 1-12.6-2.782.878.878 0 0 1 .7-1.61c.087 0 8.295 3.657 15.19 2.362a.892.892 0 0 1 1.032.7.875.875 0 0 1-.7 1.015 18.816 18.816 0 0 1-3.622.315ZM23.87 23.975h-5.74a.875.875 0 0 1-.875-.875.893.893 0 0 1 .875-.875h5.74a.893.893 0 0 1 .875.875.875.875 0 0 1-.875.875ZM10.255 23.975H3.973a.875.875 0 0 1-.875-.875.892.892 0 0 1 .875-.875h6.282a.875.875 0 1 1 0 1.75ZM38.045 23.975h-6.3a.875.875 0 1 1 0-1.75h6.3a.875.875 0 1 1 0 1.75Z" fill="#95E1D3"/></svg>