<svg width="70" height="70" fill="none" xmlns="http://www.w3.org/2000/svg"><path d="M11.667 59.792a1.516 1.516 0 0 1-.846-.263 1.43 1.43 0 0 1-.73-1.196V17.5a1.458 1.458 0 0 1 .934-1.37l14.904-5.834c.34-.118.71-.118 1.05 0l14.146 5.542 16.888-5.542a1.342 1.342 0 0 1 1.312.204 1.4 1.4 0 0 1 .583 1.167V52.5a1.429 1.429 0 0 1-.991 1.37l-17.5 5.834c-.32.116-.672.116-.992 0l-14-5.512-14.35 5.512a1.662 1.662 0 0 1-.408.088Zm14.875-8.75c.182-.044.372-.044.554 0l13.737 5.745 16.13-5.454V13.68l-15.459 5.075c-.32.116-.671.116-.991 0l-14.088-5.512-13.417 5.133v37.917l12.921-4.93a.962.962 0 0 1 .496-.204l.117-.116Z" fill="#95E1D3"/><path d="M26.425 54.075a1.459 1.459 0 0 1-1.458-1.458v-40.95a1.458 1.458 0 1 1 2.916 0V52.5a1.458 1.458 0 0 1-1.458 1.575ZM41.096 59.792a1.458 1.458 0 0 1-1.458-1.459V17.5a1.458 1.458 0 1 1 2.916 0v40.833a1.458 1.458 0 0 1-1.458 1.459Z" fill="#95E1D3"/></svg>