<svg width="42" height="42" fill="none" xmlns="http://www.w3.org/2000/svg"><path d="M21 26.372A5.372 5.372 0 1 1 26.372 21 5.39 5.39 0 0 1 21 26.372Zm0-8.995a3.623 3.623 0 1 0 0 7.246 3.623 3.623 0 0 0 0-7.246Z" fill="#95E1D3"/><path d="M21 32.375a11.375 11.375 0 1 1 0-22.75 11.375 11.375 0 0 1 0 22.75Zm0-21A9.625 9.625 0 1 0 30.625 21 9.642 9.642 0 0 0 21 11.375Z" fill="#95E1D3"/><path d="M21 38.377A17.377 17.377 0 1 1 38.377 21 17.395 17.395 0 0 1 21 38.377Zm0-33.005a15.627 15.627 0 1 0 0 31.255 15.627 15.627 0 0 0 0-31.255Z" fill="#95E1D3"/></svg>