<svg width="70" height="70" fill="none" xmlns="http://www.w3.org/2000/svg"><path d="M30.158 51.188a1.487 1.487 0 1 1-.058-2.974 1.487 1.487 0 0 1 .058 2.974ZM40.862 51.188a1.458 1.458 0 1 0 0-2.917 1.458 1.458 0 0 0 0 2.916Z" fill="#95E1D3"/><path d="M41.62 62.65H28.38a12.95 12.95 0 0 1 0-25.9h13.24a12.95 12.95 0 0 1 0 25.9ZM28.38 39.667a10.034 10.034 0 1 0 0 20.066h13.24a10.033 10.033 0 1 0 0-20.066H28.38Z" fill="#95E1D3"/><path d="M58.333 43.925h-7.816a1.458 1.458 0 1 1 0-2.917h7.816a5.338 5.338 0 0 0 5.309-5.308 25.463 25.463 0 0 0-25.405-25.433h-6.154A25.462 25.462 0 0 0 6.65 35.7a5.338 5.338 0 0 0 5.308 5.308h7.525a1.459 1.459 0 0 1 0 2.917h-7.67A8.225 8.225 0 0 1 3.588 35.7 28.38 28.38 0 0 1 32.083 7.35h6.154a28.38 28.38 0 0 1 28.321 28.32 8.254 8.254 0 0 1-8.225 8.255Z" fill="#95E1D3"/><path d="M9.246 35.962A12.6 12.6 0 0 1 4.608 35a1.458 1.458 0 0 1-.816-1.896 1.399 1.399 0 0 1 1.866-.816 10.15 10.15 0 0 0 3.588.67 9.48 9.48 0 0 0 5.337-17.266 1.459 1.459 0 0 1 1.634-2.392 12.396 12.396 0 0 1-6.942 22.662h-.03ZM64.925 35.904a18.171 18.171 0 0 1-16.8-18.054c-.006-2.204.4-4.39 1.196-6.446a1.46 1.46 0 0 1 1.896-.816 1.4 1.4 0 0 1 .816 1.866 15.196 15.196 0 0 0 13.009 20.417 1.458 1.458 0 1 1 0 2.916l-.117.117Z" fill="#95E1D3"/></svg>