<svg width="70" height="70" fill="none" xmlns="http://www.w3.org/2000/svg"><path d="M51.042 61.25H18.958A10.208 10.208 0 0 1 8.75 51.042V18.958A10.208 10.208 0 0 1 18.958 8.75h32.084A10.208 10.208 0 0 1 61.25 18.958v32.084A10.209 10.209 0 0 1 51.042 61.25ZM18.958 11.667a7.292 7.292 0 0 0-7.291 7.291v32.084a7.292 7.292 0 0 0 7.291 7.291h32.084a7.292 7.292 0 0 0 7.291-7.291V18.958a7.292 7.292 0 0 0-7.291-7.291H18.958Z" fill="#95E1D3"/><path d="M10.208 49.03a1.401 1.401 0 0 1-1.108-.526 1.43 1.43 0 0 1 .175-2.041L22.983 35a10.208 10.208 0 0 1 14.35 1.313L40.6 40.22a7.262 7.262 0 0 0 10.383.817l7.846-6.855a1.487 1.487 0 0 1 2.071.146 1.428 1.428 0 0 1-.146 2.042l-7.846 6.854a10.18 10.18 0 0 1-14.583-1.138L35 38.267a7.262 7.262 0 0 0-10.238-.934L11.054 48.708a1.575 1.575 0 0 1-.846.321Z" fill="#95E1D3"/></svg>