<svg width="42" height="42" fill="none" xmlns="http://www.w3.org/2000/svg"><path fill="#F9EFCF" d="M0 0h42v42H0z"/><path d="M21.003 36.822c-4.305 0-4.812-.023-6.492-.097a11.52 11.52 0 0 1-3.824-.787 8.081 8.081 0 0 1-4.602-4.604 11.535 11.535 0 0 1-.734-3.828c-.098-1.676-.098-2.226-.098-6.497 0-4.318.023-4.822.098-6.493.027-1.306.274-2.599.734-3.822a8.067 8.067 0 0 1 4.607-4.606 11.433 11.433 0 0 1 3.822-.735c1.672-.094 2.221-.094 6.49-.094 4.34 0 4.838.022 6.492.094 1.309.025 2.607.273 3.832.735a8.077 8.077 0 0 1 4.608 4.606c.467 1.243.718 2.555.737 3.88.098 1.676.098 2.224.098 6.494s-.025 4.83-.098 6.487a11.554 11.554 0 0 1-.735 3.831 8.093 8.093 0 0 1-4.61 4.606 11.575 11.575 0 0 1-3.825.733c-1.671.097-2.22.097-6.5.097Zm-.06-28.793c-4.28 0-4.724.02-6.395.096a8.732 8.732 0 0 0-2.923.544 5.232 5.232 0 0 0-3.006 2.996 8.765 8.765 0 0 0-.545 2.953c-.092 1.695-.092 2.14-.092 6.39 0 4.2.015 4.71.092 6.395.016.998.2 1.986.545 2.923a5.238 5.238 0 0 0 3.008 2.994 8.61 8.61 0 0 0 2.92.544c1.695.098 2.14.098 6.397.098 4.293 0 4.737-.02 6.394-.098a8.683 8.683 0 0 0 2.923-.544 5.25 5.25 0 0 0 2.992-2.99c.35-.946.534-1.947.545-2.955h.019c.075-1.673.075-2.12.075-6.394 0-4.276-.02-4.725-.094-6.397a8.857 8.857 0 0 0-.545-2.919 5.25 5.25 0 0 0-2.992-2.996 8.646 8.646 0 0 0-2.923-.544c-1.692-.096-2.135-.096-6.394-.096Zm.06 21.063A8.09 8.09 0 1 1 29.088 21a8.102 8.102 0 0 1-8.085 8.092Zm0-13.346a5.25 5.25 0 1 0 5.25 5.25 5.262 5.262 0 0 0-5.25-5.25Zm8.4-1.247a1.89 1.89 0 0 1-1.88-1.894 1.886 1.886 0 1 1 1.88 1.894Z" fill="#F38281"/></svg>