<svg width="98" height="27" fill="none" xmlns="http://www.w3.org/2000/svg"><path d="M20.16 25.74V10.512L14.652 21.6h-3.24L5.904 10.512V25.74H0V.18h6.408l6.624 13.356L19.692.18h6.372v25.56H20.16ZM39.188 26.1c-2.16 0-3.996-.456-5.508-1.368-1.488-.912-2.628-2.112-3.42-3.6a10.11 10.11 0 0 1-1.188-4.824c0-1.752.396-3.372 1.188-4.86.792-1.488 1.944-2.688 3.456-3.6 1.512-.912 3.336-1.368 5.472-1.368 2.136 0 3.96.456 5.472 1.368 1.512.912 2.664 2.112 3.456 3.6.792 1.488 1.188 3.108 1.188 4.86a10.11 10.11 0 0 1-1.188 4.824c-.792 1.488-1.944 2.688-3.456 3.6-1.512.912-3.336 1.368-5.472 1.368Zm-4.212-9.792c0 1.464.396 2.652 1.188 3.564.816.912 1.824 1.368 3.024 1.368 1.176 0 2.16-.456 2.952-1.368.816-.912 1.224-2.1 1.224-3.564s-.408-2.652-1.224-3.564c-.792-.912-1.776-1.368-2.952-1.368-1.2 0-2.208.456-3.024 1.368-.792.912-1.188 2.1-1.188 3.564ZM63.465 25.92c-1.68 0-3.264-.312-4.752-.936a12.884 12.884 0 0 1-3.924-2.7c-1.128-1.176-2.016-2.556-2.664-4.14-.624-1.608-.936-3.396-.936-5.364 0-1.776.312-3.432.936-4.968a12.953 12.953 0 0 1 2.7-4.068 12.657 12.657 0 0 1 4.068-2.736C60.453.336 62.133 0 63.933 0c2.352 0 4.416.504 6.192 1.512 1.8 1.008 3.144 2.364 4.032 4.068l-4.392 3.312a6.417 6.417 0 0 0-2.52-2.664 6.857 6.857 0 0 0-3.528-.972c-1.296 0-2.436.348-3.42 1.044-.984.672-1.752 1.596-2.304 2.772-.552 1.176-.828 2.484-.828 3.924 0 1.464.288 2.784.864 3.96.576 1.152 1.368 2.064 2.376 2.736 1.032.648 2.22.972 3.564.972 2.304 0 4.38-1.056 6.228-3.168v-.828h-4.968v-4.284h9.864V25.74h-4.896v-2.52c-1.944 1.8-4.188 2.7-6.732 2.7ZM87.528 26.1c-2.16 0-3.996-.456-5.508-1.368-1.488-.912-2.628-2.112-3.42-3.6a10.11 10.11 0 0 1-1.188-4.824c0-1.752.396-3.372 1.188-4.86.792-1.488 1.944-2.688 3.456-3.6 1.512-.912 3.336-1.368 5.472-1.368 2.136 0 3.96.456 5.472 1.368 1.512.912 2.664 2.112 3.456 3.6.792 1.488 1.188 3.108 1.188 4.86a10.11 10.11 0 0 1-1.188 4.824c-.792 1.488-1.944 2.688-3.456 3.6-1.512.912-3.336 1.368-5.472 1.368Zm-4.212-9.792c0 1.464.396 2.652 1.188 3.564.816.912 1.824 1.368 3.024 1.368 1.176 0 2.16-.456 2.952-1.368.816-.912 1.224-2.1 1.224-3.564s-.408-2.652-1.224-3.564c-.792-.912-1.776-1.368-2.952-1.368-1.2 0-2.208.456-3.024 1.368-.792.912-1.188 2.1-1.188 3.564Z" fill="#fff"/></svg>