<svg width="129" height="129" fill="none" xmlns="http://www.w3.org/2000/svg"><g opacity=".1" stroke="#20263C" stroke-miterlimit="10"><path opacity=".1" d="M128.12 125.12v3h-3"/><path opacity=".1" d="M119.35 128.12H6.88" stroke-dasharray="5.77 5.77"/><path opacity=".1" d="M4 128.12H1v-3"/><path opacity=".1" d="M1 119.35V6.88" stroke-dasharray="5.77 5.77"/><path opacity=".1" d="M1 4V1h3"/><path opacity=".1" d="M9.76 1h112.48" stroke-dasharray="5.77 5.77"/><path opacity=".1" d="M125.12 1h3v3"/><path opacity=".1" d="M128.12 9.76v112.48" stroke-dasharray="5.77 5.77"/></g><path d="M64 81.338a11.926 11.926 0 0 1-5.605-1.376 12.457 12.457 0 0 1-4.39-3.877L46 80.868c.305.366.665.676 1.067.918l14.244 8.541A5.725 5.725 0 0 0 64 91c.935 0 1.856-.23 2.689-.673l14.244-8.54A4.248 4.248 0 0 0 82 80.867L74.016 76a12.466 12.466 0 0 1-4.388 3.929A11.929 11.929 0 0 1 64 81.338ZM51.467 68.449c.008-3.037 1.188-5.964 3.315-8.223 2.128-2.259 5.054-3.69 8.218-4.022V47a4.92 4.92 0 0 0-1.37.49l-14.849 8.163a6.121 6.121 0 0 0-1.96 2.005A5.798 5.798 0 0 0 44 60.286v16.326c.007.471.086.939.235 1.388l8.345-4.592a11.767 11.767 0 0 1-1.113-4.959ZM81.365 55.647 67.297 47.49A4.5 4.5 0 0 0 66 47v9.178c1.911.218 3.745.884 5.353 1.945a12.328 12.328 0 0 1 3.907 4.164 12.426 12.426 0 0 1 .611 11.124L83.778 78A4.82 4.82 0 0 0 84 76.613V60.297a6.023 6.023 0 0 0-.773-2.637 5.982 5.982 0 0 0-1.862-2.013Z" fill="#414042"/><path d="m91.612 47.471-23.224-13.43a9.777 9.777 0 0 0-8.776 0L36.388 47.47A9.706 9.706 0 0 0 32 55.06V81.92a9.739 9.739 0 0 0 4.388 7.609l23.224 13.431a9.778 9.778 0 0 0 8.776 0l23.224-13.431A9.726 9.726 0 0 0 96 81.92V55.06a9.718 9.718 0 0 0-4.388-7.588Zm-2.982 31.36a7.509 7.509 0 0 1-3.38 5.843l-17.89 10.34a7.47 7.47 0 0 1-6.74 0l-17.87-10.34a7.5 7.5 0 0 1-3.38-5.844V58.17a7.509 7.509 0 0 1 3.38-5.844l17.848-10.34a7.47 7.47 0 0 1 6.74 0l17.89 10.34a7.5 7.5 0 0 1 3.402 5.843v20.662Z" fill="#414042"/><path d="M55 68.5c0 1.681.528 3.325 1.517 4.722a8.91 8.91 0 0 0 4.039 3.131 9.494 9.494 0 0 0 5.2.484 9.175 9.175 0 0 0 4.608-2.327 8.365 8.365 0 0 0 2.463-4.352 8.063 8.063 0 0 0-.512-4.91A8.624 8.624 0 0 0 69 61.431 9.381 9.381 0 0 0 64 60c-2.387 0-4.676.895-6.364 2.49C55.948 64.084 55 66.246 55 68.5Z" fill="#414042"/></svg>