<svg width="129" height="129" fill="none" xmlns="http://www.w3.org/2000/svg"><g opacity=".1" stroke="#20263C" stroke-miterlimit="10"><path opacity=".1" d="M128.12 125.13v3h-3"/><path opacity=".1" d="M119.35 128.13H6.88" stroke-dasharray="5.77 5.77"/><path opacity=".1" d="M4 128.13H1v-3"/><path opacity=".1" d="M1 119.36V6.89" stroke-dasharray="5.77 5.77"/><path opacity=".1" d="M1 4V1h3"/><path opacity=".1" d="M9.76 1h112.48" stroke-dasharray="5.77 5.77"/><path opacity=".1" d="M125.12 1h3v3"/><path opacity=".1" d="M128.12 9.77v112.47" stroke-dasharray="5.77 5.77"/></g><path opacity=".8" d="M64.13 23 29.999 45.62v.042L56.39 63.143l7.739-5.138V23ZM29.998 80.688l34.132 22.598V68.281l-7.739-5.138L30 80.624v.064ZM101.608 46.174l-34.13-22.62V58.56l7.76 5.138 26.37-17.481v-.043Z" fill="#A7A9AC"/><path opacity=".8" d="m67.477 103.841 34.131-22.62v-.042l-26.37-17.482-7.76 5.138v35.006Z" fill="#A7A9AC"/><path opacity=".8" d="M29.998 45.662v34.963l26.393-17.482L30 45.662ZM101.609 81.179V46.216L75.237 63.698l26.372 17.481Z" fill="#414042"/></svg>