<svg width="73" height="67" fill="none" xmlns="http://www.w3.org/2000/svg"><path d="M70.82 54.377a8.166 8.166 0 0 0-5.172-3.634 15.76 15.76 0 0 1-11.8-18.835 8.166 8.166 0 1 0-9.893 6.138 15.759 15.759 0 0 1 11.894 18.89 8.165 8.165 0 1 0 14.97-2.559Z" fill="#414042"/><path d="M20.614 45.313a8.166 8.166 0 0 0 11.704-9.608A15.76 15.76 0 0 1 42.73 15.958a8.165 8.165 0 1 0-10.262-5.444 15.746 15.746 0 0 1-10.397 19.638 8.166 8.166 0 0 0-1.457 15.107v.054Z" fill="#414042"/><path d="M41.627 43.98a8.166 8.166 0 0 0-5.743 2.653 15.746 15.746 0 0 1-22.197.803 8.166 8.166 0 0 0-5.906-2.205 8.166 8.166 0 1 0 6.26 13.828 15.774 15.774 0 0 1 22.32-.858 8.164 8.164 0 0 0 13.567-7.142 8.166 8.166 0 0 0-8.3-7.08Z" fill="#414042"/></svg>