<svg width="81" height="81" fill="none" xmlns="http://www.w3.org/2000/svg"><path d="M12.453 15.21 0 27.663l12.453 12.452 12.453-12.452L12.453 15.21Z" fill="#414042"/><path d="M24.927 27.657 12.469 15.2a17.611 17.611 0 0 1 0 24.9L.01 52.545 12.47 65.002l12.458-12.457L37.383 40.1 24.927 27.657Z" fill="url('#paint0_linear_2551_676')"/><path d="m67.753 65.03 12.453-12.454-12.453-12.453L55.3 52.576 67.754 65.03Z" fill="#414042"/><path d="M55.303 52.572 67.76 65.016a17.61 17.61 0 0 1 0-24.901l12.458-12.458L67.76 15.2 55.302 27.657 42.86 40.115l12.444 12.457Z" fill="url('#paint1_linear_2551_676')"/><path d="M15.209 67.767 27.662 80.22l12.453-12.453-12.453-12.453-12.453 12.453Z" fill="#414042"/><path d="M27.664 55.295 15.206 67.754a17.61 17.61 0 0 1 24.901 0l12.444 12.458L65.01 67.753 52.55 55.295 40.107 42.852 27.664 55.296Z" fill="url('#paint2_linear_2551_676')"/><path d="M65.029 12.453 52.576 0 40.123 12.453l12.453 12.453 12.453-12.453Z" fill="#414042"/><path d="m52.579 24.92 12.444-12.458a17.612 17.612 0 0 1-24.902 0L27.664.004 15.206 12.462 27.664 24.92 40.12 37.377 52.58 24.92Z" fill="url('#paint3_linear_2551_676')"/><defs><linearGradient id="paint0_linear_2551_676" x1="18.572" y1="62.963" x2="18.879" y2="19.878" gradientUnits="userSpaceOnUse"><stop stop-color="#414042"/><stop offset="1" stop-color="#E6E7E8"/></linearGradient><linearGradient id="paint1_linear_2551_676" x1="146805" y1="18832.4" x2="146790" y2="20369.2" gradientUnits="userSpaceOnUse"><stop stop-color="#414042"/><stop offset="1" stop-color="#E6E7E8"/></linearGradient><linearGradient id="paint2_linear_2551_676" x1="94595.9" y1="113289" x2="93443.3" y2="113283" gradientUnits="userSpaceOnUse"><stop stop-color="#414042"/><stop offset="1" stop-color="#E6E7E8"/></linearGradient><linearGradient id="paint3_linear_2551_676" x1="77140.6" y1="-58646" x2="78293.6" y2="-58639.8" gradientUnits="userSpaceOnUse"><stop stop-color="#414042"/><stop offset="1" stop-color="#E6E7E8"/></linearGradient></defs></svg>