<svg width="69" height="67" fill="none" xmlns="http://www.w3.org/2000/svg"><path opacity=".95" d="M11.7 55.11v11.65l10.08-5.83V49.29L11.7 55.11Z" fill="#414042"/><path opacity=".5" d="M10.08 55.11v11.65L0 60.93V49.29l10.08 5.82Z" fill="#414042"/><path opacity=".3" d="M11.7 42.53v10.71l9.28-5.36-9.28-5.35Z" fill="#414042"/><path opacity=".75" d="M10.08 42.53.8 47.88l9.28 5.36V42.53Z" fill="#414042"/><path opacity=".95" d="M10.08 39.67V28.02L0 33.85v11.64l10.08-5.82ZM11.7 12.58v11.65l10.08-5.83V6.76L11.7 12.58Z" fill="#414042"/><path opacity=".5" d="M10.08 12.58v11.65L0 18.4V6.76l10.08 5.82Z" fill="#414042"/><path opacity=".3" d="M11.7 0v10.71l9.28-5.36L11.7 0Z" fill="#414042"/><path opacity=".75" d="M10.08 0 .8 5.35l9.28 5.36V0ZM.8 20.72v10.72l9.28-5.36L.8 20.72Z" fill="#414042"/><path opacity=".15" d="m20.98 20.72-9.28 5.36 9.28 5.36V20.72Z" fill="#414042"/><path opacity=".5" d="M11.7 39.67V28.02l10.08 5.83v11.64L11.7 39.67Z" fill="#414042"/><path opacity=".95" d="M35.2 55.11v11.65l10.08-5.83V49.29L35.2 55.11Z" fill="#414042"/><path opacity=".5" d="M33.58 55.11v11.65L23.5 60.93V49.29l10.08 5.82Z" fill="#414042"/><path opacity=".3" d="M35.2 42.53v10.71l9.28-5.36-9.28-5.35Z" fill="#414042"/><path opacity=".75" d="m33.58 42.53-9.28 5.35 9.28 5.36V42.53Z" fill="#414042"/><path opacity=".95" d="M33.58 39.67V28.02L23.5 33.85v11.64l10.08-5.82ZM35.2 12.58v11.65l10.08-5.83V6.76L35.2 12.58Z" fill="#414042"/><path opacity=".5" d="M33.58 12.58v11.65L23.5 18.4V6.76l10.08 5.82Z" fill="#414042"/><path opacity=".3" d="M35.2 0v10.71l9.28-5.36L35.2 0Z" fill="#414042"/><path opacity=".75" d="M33.58 0 24.3 5.35l9.28 5.36V0ZM24.3 20.72v10.72l9.28-5.36-9.28-5.36Z" fill="#414042"/><path opacity=".15" d="m44.48 20.72-9.28 5.36 9.28 5.36V20.72Z" fill="#414042"/><path opacity=".5" d="M35.2 39.67V28.02l10.08 5.83v11.64L35.2 39.67Z" fill="#414042"/><path opacity=".95" d="M58.36 55.11v11.65l10.09-5.83V49.29l-10.09 5.82Z" fill="#414042"/><path opacity=".5" d="M56.75 55.11v11.65l-10.09-5.83V49.29l10.09 5.82Z" fill="#414042"/><path opacity=".3" d="M58.36 42.53v10.71l9.28-5.36-9.28-5.35Z" fill="#414042"/><path opacity=".75" d="m56.75 42.53-9.28 5.35 9.28 5.36V42.53Z" fill="#414042"/><path opacity=".95" d="M56.75 39.67V28.02l-10.09 5.83v11.64l10.09-5.82ZM58.36 12.58v11.65l10.09-5.83V6.76l-10.09 5.82Z" fill="#414042"/><path opacity=".5" d="M56.75 12.58v11.65L46.66 18.4V6.76l10.09 5.82Z" fill="#414042"/><path opacity=".3" d="M58.36 0v10.71l9.28-5.36L58.36 0Z" fill="#414042"/><path opacity=".75" d="m56.75 0-9.28 5.35 9.28 5.36V0ZM47.47 20.72v10.72l9.28-5.36-9.28-5.36Z" fill="#414042"/><path opacity=".15" d="m67.64 20.72-9.28 5.36 9.28 5.36V20.72Z" fill="#414042"/><path opacity=".5" d="M58.36 39.67V28.02l10.09 5.83v11.64l-10.09-5.82Z" fill="#414042"/></svg>