<svg width="129" height="129" fill="none" xmlns="http://www.w3.org/2000/svg"><g opacity=".1"><g opacity=".1"><path d="M128.12 125.12v3h-3" fill="#231F20"/><path d="M128.12 125.12v3h-3" stroke="#20263C" stroke-miterlimit="10"/></g><g opacity=".1"><path d="M119.36 128.12H6.88Z" fill="#231F20"/><path d="M119.36 128.12H6.88" stroke="#20263C" stroke-miterlimit="10" stroke-dasharray="5.77 5.77"/></g><g opacity=".1"><path d="M4 128.12H1v-3" fill="#231F20"/><path d="M4 128.12H1v-3" stroke="#20263C" stroke-miterlimit="10"/></g><g opacity=".1"><path d="M1 119.36V6.88Z" fill="#231F20"/><path d="M1 119.36V6.88" stroke="#20263C" stroke-miterlimit="10" stroke-dasharray="5.77 5.77"/></g><g opacity=".1"><path d="M1 4V1h3" fill="#231F20"/><path d="M1 4V1h3" stroke="#20263C" stroke-miterlimit="10"/></g><g opacity=".1"><path d="M9.77 1h112.47Z" fill="#231F20"/><path d="M9.77 1h112.47" stroke="#20263C" stroke-miterlimit="10" stroke-dasharray="5.77 5.77"/></g><g opacity=".1"><path d="M125.12 1h3v3" fill="#231F20"/><path d="M125.12 1h3v3" stroke="#20263C" stroke-miterlimit="10"/></g><g opacity=".1"><path d="M128.12 9.77v112.47Z" fill="#231F20"/><path d="M128.12 9.77v112.47" stroke="#20263C" stroke-miterlimit="10" stroke-dasharray="5.77 5.77"/></g></g><path d="M51.08 37.397a7.649 7.649 0 0 0-2.427 2.578 7.7 7.7 0 0 0-1.013 3.4v6.809a7.7 7.7 0 0 0 1.013 3.4 7.648 7.648 0 0 0 2.428 2.578l7.119 4.22c1.888 1.098 3.44.197 3.44-1.997v-23.07c0-2.194-1.552-3.094-3.44-1.997l-7.12 4.08ZM50.34 57.638a7.446 7.446 0 0 0-6.669 0l-5.69 3.228a7.362 7.362 0 0 0-2.357 2.465 7.281 7.281 0 0 0-.984 3.252v7.91c0 2.098 1.508 2.959 3.34 1.91l19.285-11.03c1.834-1.05 1.834-2.758 0-3.808l-6.926-3.927ZM76.2 37.397a7.647 7.647 0 0 1 2.427 2.578 7.697 7.697 0 0 1 1.013 3.4v6.809a7.697 7.697 0 0 1-1.013 3.4 7.646 7.646 0 0 1-2.427 2.578l-7.133 4.22c-1.888 1.098-3.427.197-3.427-1.997v-23.07c0-2.194 1.539-3.094 3.427-1.997l7.133 4.08ZM76.292 57.638a8.03 8.03 0 0 1 3.475-.788 8.03 8.03 0 0 1 3.475.788l5.93 3.228a7.487 7.487 0 0 1 2.45 2.466c.603.993.952 2.107 1.018 3.251v7.91c0 2.098-1.557 2.959-3.468 1.91l-20.099-11.03c-1.91-1.05-1.91-2.758 0-3.808l7.219-3.927ZM46.946 87.064a7.46 7.46 0 0 0 6.672 0l5.693-3.238a7.37 7.37 0 0 0 2.353-2.47 7.275 7.275 0 0 0 .976-3.253v-7.899c0-2.095-1.495-2.955-3.329-1.907L40.016 79.312c-1.834 1.048-1.834 2.754 0 3.802l6.93 3.95ZM63.64 78.11a7.044 7.044 0 0 0 1.019 3.244 7.494 7.494 0 0 0 2.449 2.461l5.93 3.25a8.042 8.042 0 0 0 3.475.785c1.208 0 2.398-.27 3.475-.786l7.219-3.96c1.91-1.047 1.91-2.752 0-3.8l-20.1-11.008c-1.91-1.047-3.467-.187-3.467 1.907v7.907Z" fill="#231F20"/></svg>