<svg width="24" height="24" fill="none" xmlns="http://www.w3.org/2000/svg"><path d="M10.67 15.097c-.506 2.726-1.122 5.34-2.95 6.705-.563-4.12.829-7.215 1.475-10.5-1.102-1.91.133-5.755 2.457-4.808 2.86 1.166-2.477 7.102 1.106 7.844 3.741.774 5.269-6.683 2.949-9.109-3.352-3.5-9.757-.079-8.969 4.934.192 1.226 1.421 1.598.491 3.29-2.145-.49-2.785-2.233-2.702-4.556.132-3.8 3.317-6.462 6.511-6.83 4.04-.466 7.831 1.527 8.354 5.44.59 4.416-1.823 9.2-6.142 8.855-1.171-.093-1.663-.69-2.58-1.265Z" fill="#95E1D3"/></svg>