<svg width="42" height="42" fill="none" xmlns="http://www.w3.org/2000/svg"><path fill="#F9EFCF" d="M0 0h42v42H0z"/><path d="M18.672 26.42c-.885 4.77-1.963 9.345-5.162 11.733-.985-7.21 1.45-12.626 2.581-18.374-1.928-3.343.233-10.072 4.3-8.415 5.005 2.041-4.335 12.429 1.936 13.727 6.546 1.355 9.22-11.695 5.16-15.94-5.866-6.127-17.075-.139-15.695 8.634.335 2.146 2.486 2.797.859 5.758-3.754-.86-4.874-3.908-4.729-7.973.231-6.65 5.805-11.309 11.395-11.953 7.07-.815 13.704 2.672 14.619 9.52 1.032 7.728-3.19 16.1-10.748 15.497-2.05-.163-2.91-1.208-4.515-2.214Z" fill="#F38281"/></svg>