<svg width="42" height="42" fill="none" xmlns="http://www.w3.org/2000/svg"><path fill="#F9EFCF" d="M0 0h42v42H0z"/><path d="M34.991 11.704a7.525 7.525 0 0 0 3.303-4.155 15.032 15.032 0 0 1-4.77 1.822 7.525 7.525 0 0 0-12.802 6.851A21.323 21.323 0 0 1 5.245 8.375a7.525 7.525 0 0 0 2.324 10.028 7.483 7.483 0 0 1-3.4-.941v.094a7.515 7.515 0 0 0 6.025 7.364 7.524 7.524 0 0 1-3.392.13 7.525 7.525 0 0 0 7.016 5.215 15.067 15.067 0 0 1-9.327 3.214c-.6 0-1.2-.035-1.794-.103A21.26 21.26 0 0 0 14.21 36.75a21.222 21.222 0 0 0 21.367-21.37c0-.325-.006-.649-.022-.97a15.256 15.256 0 0 0 3.748-3.889 15.017 15.017 0 0 1-4.312 1.183Z" fill="#F38281"/></svg>