<svg width="24" height="24" viewBox="0 0 24 24" fill="none" xmlns="http://www.w3.org/2000/svg">
<path d="M12.002 21.0409C9.54195 21.0409 9.25195 21.0279 8.29195 20.9859C7.54332 20.9613 6.80438 20.8091 6.10695 20.5359C5.51013 20.3036 4.96813 19.9498 4.51537 19.4969C4.06261 19.0439 3.70899 18.5018 3.47695 17.9049C3.21426 17.2049 3.07257 16.4654 3.05795 15.7179C3.00195 14.7599 3.00195 14.4459 3.00195 12.0049C3.00195 9.53788 3.01495 9.24988 3.05795 8.29488C3.07289 7.5484 3.21457 6.80989 3.47695 6.11088C3.70872 5.51322 4.06258 4.97046 4.51595 4.51727C4.96931 4.06408 5.5122 3.71042 6.10995 3.47888C6.8086 3.21509 7.5473 3.07303 8.29395 3.05888C9.24895 3.00488 9.56295 3.00488 12.002 3.00488C14.482 3.00488 14.767 3.01788 15.712 3.05888C16.46 3.07288 17.202 3.21488 17.902 3.47888C18.4995 3.71069 19.0423 4.06444 19.4956 4.5176C19.949 4.97075 20.3029 5.51338 20.535 6.11088C20.802 6.82088 20.945 7.57088 20.956 8.32788C21.012 9.28588 21.012 9.59888 21.012 12.0389C21.012 14.4789 20.998 14.7989 20.956 15.7459C20.941 16.4941 20.799 17.2343 20.536 17.9349C20.3033 18.5322 19.949 19.0746 19.4956 19.5277C19.0422 19.9808 18.4995 20.3347 17.902 20.5669C17.202 20.8289 16.463 20.9709 15.716 20.9859C14.761 21.0409 14.448 21.0409 12.002 21.0409ZM11.968 4.58788C9.52195 4.58788 9.26795 4.59988 8.31295 4.64288C7.7426 4.65034 7.17775 4.75553 6.64295 4.95388C6.25288 5.1034 5.89847 5.33299 5.60257 5.62786C5.30667 5.92274 5.07583 6.27634 4.92495 6.66588C4.72495 7.20588 4.61995 7.77688 4.61395 8.35288C4.56095 9.32188 4.56095 9.57588 4.56095 12.0049C4.56095 14.4049 4.56995 14.6959 4.61395 15.6589C4.62295 16.2289 4.72795 16.7939 4.92495 17.3289C5.23095 18.1159 5.85495 18.7379 6.64395 19.0399C7.17806 19.2395 7.7428 19.3447 8.31295 19.3509C9.28095 19.4069 9.53595 19.4069 11.968 19.4069C14.421 19.4069 14.675 19.3949 15.622 19.3509C16.1924 19.344 16.7573 19.2388 17.292 19.0399C17.6799 18.8892 18.0323 18.6595 18.3267 18.3653C18.6211 18.071 18.8511 17.7188 19.002 17.3309C19.202 16.7909 19.307 16.2189 19.313 15.6429H19.324C19.367 14.6869 19.367 14.4319 19.367 11.9889C19.367 9.54588 19.356 9.28888 19.313 8.33388C19.3039 7.76434 19.1988 7.20041 19.002 6.66588C18.8514 6.27743 18.6216 5.92459 18.3272 5.62983C18.0328 5.33508 17.6802 5.10487 17.292 4.95388C16.757 4.75388 16.192 4.64988 15.622 4.64288C14.655 4.58788 14.402 4.58788 11.968 4.58788ZM12.002 16.6239C11.0875 16.6245 10.1935 16.3539 9.43284 15.8463C8.67222 15.3387 8.07921 14.617 7.72882 13.7723C7.37842 12.9277 7.28638 11.9981 7.46434 11.1012C7.6423 10.2042 8.08227 9.38022 8.72858 8.73334C9.3749 8.08647 10.1985 7.64579 11.0953 7.46706C11.9921 7.28832 12.9218 7.37955 13.7667 7.72921C14.6116 8.07888 15.3339 8.67126 15.8421 9.43144C16.3504 10.1916 16.6218 11.0855 16.622 11.9999C16.6204 13.2251 16.1332 14.3997 15.2673 15.2664C14.4013 16.1331 13.2271 16.6212 12.002 16.6239ZM12.002 8.99788C11.4086 8.99788 10.8286 9.17383 10.3352 9.50347C9.84189 9.83312 9.45738 10.3017 9.23031 10.8498C9.00325 11.398 8.94384 12.0012 9.0596 12.5832C9.17535 13.1651 9.46108 13.6996 9.88063 14.1192C10.3002 14.5388 10.8347 14.8245 11.4167 14.9402C11.9986 15.056 12.6018 14.9966 13.15 14.7695C13.6982 14.5425 14.1667 14.1579 14.4964 13.6646C14.826 13.1712 15.002 12.5912 15.002 11.9979C15.0001 11.2028 14.6834 10.4408 14.1212 9.8786C13.559 9.3164 12.797 8.99973 12.002 8.99788ZM16.802 8.28488C16.6604 8.28436 16.5203 8.25595 16.3897 8.20129C16.2591 8.14663 16.1406 8.06679 16.0409 7.96632C15.8394 7.7634 15.7269 7.48879 15.728 7.20288C15.729 6.91698 15.8436 6.64321 16.0465 6.44179C16.2494 6.24038 16.524 6.12782 16.81 6.12888C17.0959 6.12994 17.3696 6.24454 17.571 6.44745C17.7725 6.65036 17.885 6.92498 17.884 7.21088C17.8829 7.49679 17.7683 7.77056 17.5654 7.97197C17.3625 8.17339 17.0879 8.28594 16.802 8.28488Z" fill="#95E1D3"/>
</svg>
