<svg width="141" height="38" viewBox="0 0 141 38" fill="none" xmlns="http://www.w3.org/2000/svg">
<path d="M29.1023 37.4759V15.3048L21.1512 31.4483H16.474L8.52283 15.3048V37.4759H0V0.262069H9.25038L18.8126 19.7076L28.4267 0.262069H37.6252V37.4759H29.1023Z" fill="#C6CBCD"/>
<path d="M56.5709 38C53.4528 38 50.8024 37.3361 48.6197 36.0083C46.4717 34.6805 44.826 32.9333 43.6827 30.7669C42.5394 28.6005 41.9678 26.2593 41.9678 23.7435C41.9678 21.1926 42.5394 18.834 43.6827 16.6676C44.826 14.5012 46.489 12.754 48.6717 11.4262C50.8544 10.0984 53.4874 9.43448 56.5709 9.43448C59.6544 9.43448 62.2874 10.0984 64.4701 11.4262C66.6528 12.754 68.3158 14.5012 69.4591 16.6676C70.6024 18.834 71.174 21.1926 71.174 23.7435C71.174 26.2593 70.6024 28.6005 69.4591 30.7669C68.3158 32.9333 66.6528 34.6805 64.4701 36.0083C62.2874 37.3361 59.6544 38 56.5709 38ZM50.4906 23.7435C50.4906 25.8749 51.0622 27.6046 52.2056 28.9324C53.3835 30.2602 54.8386 30.9241 56.5709 30.9241C58.2685 30.9241 59.689 30.2602 60.8323 28.9324C62.0103 27.6046 62.5992 25.8749 62.5992 23.7435C62.5992 21.612 62.0103 19.8823 60.8323 18.5545C59.689 17.2267 58.2685 16.5628 56.5709 16.5628C54.8386 16.5628 53.3835 17.2267 52.2056 18.5545C51.0622 19.8823 50.4906 21.612 50.4906 23.7435Z" fill="#C6CBCD"/>
<path d="M91.6159 37.7379C89.1907 37.7379 86.9041 37.2837 84.7561 36.3752C82.6427 35.4317 80.7545 34.1214 79.0915 32.4441C77.4632 30.732 76.1813 28.7228 75.2458 26.4166C74.3451 24.0754 73.8947 21.4722 73.8947 18.6069C73.8947 16.0212 74.3451 13.6101 75.2458 11.3738C76.1813 9.13747 77.4805 7.16322 79.1435 5.45104C80.8411 3.73885 82.7986 2.41103 85.0159 1.46759C87.2679 0.489195 89.6931 0 92.2915 0C95.6868 0 98.6663 0.733795 101.23 2.20138C103.828 3.66897 105.769 5.64322 107.051 8.12414L100.71 12.9462C99.8789 11.3039 98.6663 10.011 97.0726 9.06759C95.4789 8.12414 93.7813 7.65241 91.9797 7.65241C90.1088 7.65241 88.4632 8.15908 87.0427 9.17241C85.6222 10.1508 84.5135 11.4961 83.7167 13.2083C82.9199 14.9205 82.5214 16.8248 82.5214 18.9214C82.5214 21.0529 82.9372 22.9747 83.7687 24.6869C84.6002 26.3641 85.7435 27.692 87.1986 28.6703C88.6883 29.6138 90.4033 30.0855 92.3435 30.0855C95.6694 30.0855 98.6663 28.548 101.334 25.4731V24.2676H94.1624V18.0303H108.402V37.4759H101.334V33.8069C98.5277 36.4276 95.2883 37.7379 91.6159 37.7379Z" fill="#C6CBCD"/>
<path d="M126.353 38C123.235 38 120.584 37.3361 118.402 36.0083C116.254 34.6805 114.608 32.9333 113.465 30.7669C112.321 28.6005 111.75 26.2593 111.75 23.7435C111.75 21.1926 112.321 18.834 113.465 16.6676C114.608 14.5012 116.271 12.754 118.454 11.4262C120.636 10.0984 123.269 9.43448 126.353 9.43448C129.436 9.43448 132.069 10.0984 134.252 11.4262C136.435 12.754 138.098 14.5012 139.241 16.6676C140.384 18.834 140.956 21.1926 140.956 23.7435C140.956 26.2593 140.384 28.6005 139.241 30.7669C138.098 32.9333 136.435 34.6805 134.252 36.0083C132.069 37.3361 129.436 38 126.353 38ZM120.272 23.7435C120.272 25.8749 120.844 27.6046 121.987 28.9324C123.165 30.2602 124.62 30.9241 126.353 30.9241C128.05 30.9241 129.471 30.2602 130.614 28.9324C131.792 27.6046 132.381 25.8749 132.381 23.7435C132.381 21.612 131.792 19.8823 130.614 18.5545C129.471 17.2267 128.05 16.5628 126.353 16.5628C124.62 16.5628 123.165 17.2267 121.987 18.5545C120.844 19.8823 120.272 21.612 120.272 23.7435Z" fill="#C6CBCD"/>
</svg>
