<svg width="32" height="32" viewBox="0 0 32 32" fill="none" xmlns="http://www.w3.org/2000/svg">
<path d="M17.44 26.9864C15.6258 26.9881 13.8378 26.5536 12.2267 25.7198C12.1487 25.6795 12.0795 25.6243 12.0229 25.5572C11.9664 25.4902 11.9235 25.4127 11.8969 25.3291C11.8703 25.2456 11.8604 25.1576 11.8678 25.0702C11.8752 24.9828 11.8997 24.8977 11.94 24.8198C11.9803 24.7418 12.0355 24.6726 12.1025 24.616C12.1695 24.5595 12.247 24.5167 12.3306 24.49C12.4142 24.4634 12.5022 24.4535 12.5896 24.4609C12.677 24.4683 12.7621 24.4928 12.84 24.5331C14.998 25.631 17.4804 25.9109 19.8286 25.3211C22.1769 24.7314 24.2325 23.3118 25.6157 21.3246C26.999 19.3375 27.6164 16.9169 27.354 14.5099C27.0917 12.103 25.9672 9.87225 24.1883 8.22974C22.4094 6.58724 20.0963 5.6439 17.6761 5.57395C15.2559 5.504 12.8921 6.31216 11.0214 7.84917C9.15057 9.38619 7.89915 11.5482 7.49819 13.936C7.09724 16.3238 7.57384 18.776 8.83999 20.8398C8.9293 20.9925 8.95559 21.174 8.91326 21.3457C8.87094 21.5175 8.76335 21.666 8.61332 21.7598C8.53815 21.8057 8.45462 21.8363 8.36754 21.8498C8.28047 21.8633 8.19159 21.8594 8.10604 21.8383C8.02049 21.8172 7.93997 21.7794 7.86913 21.727C7.79828 21.6746 7.73853 21.6087 7.69332 21.5331C6.23013 19.19 5.67309 16.3932 6.12691 13.6682C6.58073 10.9433 8.01416 8.478 10.1578 6.7356C12.3014 4.99319 15.0076 4.0937 17.7677 4.20618C20.5279 4.31867 23.1519 5.43538 25.1467 7.34643C26.6871 8.77423 27.8005 10.602 28.3625 12.6258C28.9246 14.6496 28.9131 16.7898 28.3295 18.8074C27.746 20.8251 26.6131 22.6409 25.0576 24.0522C23.502 25.4635 21.5848 26.4147 19.52 26.7998C18.8341 26.9274 18.1377 26.9899 17.44 26.9864Z" fill="#95E1D3"/>
<path d="M7.09333 27.6797C6.83486 27.6748 6.58158 27.6064 6.35589 27.4803C6.13019 27.3543 5.93903 27.1746 5.7993 26.9571C5.65958 26.7396 5.5756 26.491 5.55479 26.2333C5.53398 25.9757 5.57698 25.7168 5.67999 25.4797L7.70666 20.9197C7.7821 20.7581 7.91801 20.6326 8.08512 20.5703C8.25222 20.5079 8.43712 20.5137 8.59999 20.5864C8.76066 20.6591 8.88595 20.7926 8.94842 20.9575C9.0109 21.1225 9.00547 21.3054 8.93333 21.4664L6.89333 26.0264C6.86736 26.061 6.85333 26.1031 6.85333 26.1464C6.85333 26.1897 6.86736 26.2318 6.89333 26.2664C6.92245 26.2997 6.9607 26.3238 7.00335 26.3356C7.046 26.3475 7.09118 26.3466 7.13333 26.3331L12.2667 24.5064C12.3488 24.4748 12.4365 24.4601 12.5245 24.4632C12.6124 24.4664 12.6988 24.4872 12.7785 24.5246C12.8582 24.5619 12.9296 24.615 12.9882 24.6806C13.0469 24.7462 13.0917 24.823 13.12 24.9064C13.18 25.0726 13.1716 25.2558 13.0966 25.4159C13.0216 25.5759 12.8862 25.6995 12.72 25.7597L7.62666 27.5864C7.45605 27.6497 7.27531 27.6814 7.09333 27.6797Z" fill="#95E1D3"/>
</svg>
