<svg width="70" height="70" viewBox="0 0 70 70" fill="none" xmlns="http://www.w3.org/2000/svg">
<path fill-rule="evenodd" clip-rule="evenodd" d="M35.0755 5.83337C19.0075 5.83337 5.98462 18.8563 5.98462 34.9242C5.98462 47.775 14.3175 58.6805 25.8792 62.5305C27.3346 62.793 27.8596 61.8975 27.8596 61.1275C27.8596 60.4363 27.8363 58.6046 27.8275 56.1809C19.7338 57.9367 18.0246 52.2784 18.0246 52.2784C16.7063 48.9184 14.7959 48.023 14.7959 48.023C12.1563 46.2175 14.9971 46.2584 14.9971 46.2584C17.9196 46.4625 19.4509 49.2567 19.4509 49.2567C22.0467 53.7017 26.2642 52.4184 27.915 51.6746C28.1805 49.7934 28.9388 48.51 29.7671 47.7838C23.3096 47.0517 16.5196 44.555 16.5196 33.4046C16.5196 30.2342 17.6542 27.6325 19.5063 25.6025C19.2117 24.8646 18.2055 21.9042 19.795 17.9025C19.795 17.9025 22.2363 17.118 27.7925 20.8805C30.1655 20.2349 32.6133 19.9054 35.0725 19.9005C37.5318 19.9044 39.9797 20.234 42.3525 20.8805C47.9117 17.115 50.35 17.9025 50.35 17.9025C51.9396 21.9042 50.9421 24.8646 50.6388 25.6025C52.5055 27.6325 53.6255 30.2313 53.6255 33.4046C53.6255 44.5842 46.8296 47.04 40.3488 47.7605C41.3842 48.6588 42.3175 50.4321 42.3175 53.1446C42.3175 57.0355 42.2825 60.1738 42.2825 61.1275C42.2825 61.9063 42.8017 62.8105 44.2863 62.5246C55.8421 58.6688 64.1663 47.7721 64.1663 34.9242C64.1663 18.8563 51.1434 5.83337 35.0755 5.83337Z" fill="#CCCCCC"/>
</svg>
