<svg width="70" height="70" viewBox="0 0 70 70" fill="none" xmlns="http://www.w3.org/2000/svg">
<path d="M61.0956 24.2228C61.0662 22.0138 60.6527 19.8267 59.8735 17.7595C59.1979 16.0157 58.1659 14.4321 56.8436 13.1098C55.5213 11.7875 53.9377 10.7555 52.194 10.0799C50.1533 9.31383 47.9974 8.89962 45.8181 8.85487C43.0123 8.72946 42.1227 8.69446 35.0002 8.69446C27.8777 8.69446 26.9648 8.69446 24.1794 8.85487C22.0011 8.89995 19.8462 9.31416 17.8065 10.0799C16.0625 10.7551 14.4786 11.7868 13.1562 13.1092C11.8338 14.4316 10.802 16.0155 10.1269 17.7595C9.3593 19.7986 8.94598 21.9539 8.90479 24.1324C8.77937 26.9411 8.74146 27.8307 8.74146 34.9532C8.74146 42.0757 8.74146 42.9857 8.90479 45.774C8.94854 47.9557 9.35979 50.1082 10.1269 52.1528C10.8032 53.8963 11.8357 55.4795 13.1586 56.8013C14.4814 58.1231 16.0654 59.1545 17.8094 59.8295C19.8436 60.6263 21.9988 61.0701 24.1823 61.142C26.991 61.2674 27.8806 61.3053 35.0031 61.3053C42.1256 61.3053 43.0385 61.3053 45.824 61.142C48.0032 61.099 50.1592 60.6858 52.1998 59.9199C53.9431 59.2434 55.5263 58.2112 56.8485 56.889C58.1707 55.5668 59.2029 53.9836 59.8794 52.2403C60.6465 50.1986 61.0577 48.0461 61.1015 45.8615C61.2269 43.0557 61.2648 42.1661 61.2648 35.0407C61.2589 27.9182 61.259 27.014 61.0956 24.2228ZM34.9827 48.4224C27.5335 48.4224 21.499 42.3878 21.499 34.9386C21.499 27.4895 27.5335 21.4549 34.9827 21.4549C38.5588 21.4549 41.9885 22.8755 44.5172 25.4042C47.0458 27.9329 48.4665 31.3625 48.4665 34.9386C48.4665 38.5147 47.0458 41.9444 44.5172 44.4731C41.9885 47.0018 38.5588 48.4224 34.9827 48.4224ZM49.0031 24.1003C48.5901 24.1007 48.1811 24.0196 47.7994 23.8617C47.4178 23.7039 47.071 23.4723 46.779 23.1802C46.487 22.8882 46.2554 22.5414 46.0975 22.1598C45.9396 21.7782 45.8586 21.3691 45.859 20.9561C45.859 20.5434 45.9402 20.1348 46.0982 19.7535C46.2561 19.3722 46.4876 19.0257 46.7794 18.7339C47.0713 18.4421 47.4177 18.2106 47.799 18.0526C48.1803 17.8947 48.589 17.8134 49.0017 17.8134C49.4144 17.8134 49.823 17.8947 50.2043 18.0526C50.5856 18.2106 50.9321 18.4421 51.2239 18.7339C51.5157 19.0257 51.7472 19.3722 51.9051 19.7535C52.0631 20.1348 52.1444 20.5434 52.1444 20.9561C52.1444 22.6945 50.7385 24.1003 49.0031 24.1003Z" fill="#CCCCCC"/>
<path d="M34.9829 43.6974C39.8202 43.6974 43.7416 39.776 43.7416 34.9387C43.7416 30.1014 39.8202 26.1799 34.9829 26.1799C30.1455 26.1799 26.2241 30.1014 26.2241 34.9387C26.2241 39.776 30.1455 43.6974 34.9829 43.6974Z" fill="#CCCCCC"/>
</svg>
