<svg width="70" height="70" viewBox="0 0 70 70" fill="none" xmlns="http://www.w3.org/2000/svg">
<path d="M26.3666 62.8251C29.1666 63.6709 31.9958 64.1667 34.9999 64.1667C42.7354 64.1667 50.1541 61.0938 55.6239 55.624C61.0937 50.1542 64.1666 42.7355 64.1666 35C64.1666 31.1698 63.4122 27.3771 61.9464 23.8384C60.4807 20.2998 58.3322 17.0845 55.6239 14.3761C52.9155 11.6677 49.7002 9.51932 46.1615 8.05355C42.6229 6.58779 38.8301 5.83337 34.9999 5.83337C31.1697 5.83337 27.377 6.58779 23.8383 8.05355C20.2997 9.51932 17.0843 11.6677 14.376 14.3761C8.90616 19.8459 5.83325 27.2646 5.83325 35C5.83325 47.3959 13.6208 58.0417 24.6166 62.2417C24.3541 59.9667 24.0916 56.2042 24.6166 53.6084L27.9708 39.2C27.9708 39.2 27.1249 37.5084 27.1249 34.825C27.1249 30.8 29.6333 27.7959 32.4916 27.7959C34.9999 27.7959 36.1666 29.6334 36.1666 31.9959C36.1666 34.5042 34.5041 38.0917 33.6583 41.5334C33.1624 44.3917 35.1749 46.9 38.0916 46.9C43.2833 46.9 47.3083 41.3584 47.3083 33.5417C47.3083 26.5417 42.2916 21.7584 35.0874 21.7584C26.8624 21.7584 22.0208 27.8834 22.0208 34.3292C22.0208 36.8375 22.8374 39.375 24.1791 41.0375C24.4416 41.2125 24.4416 41.4459 24.3541 41.8834L23.5083 45.0625C23.5083 45.5584 23.1874 45.7334 22.6916 45.3834C18.9583 43.75 16.7999 38.4417 16.7999 34.1542C16.7999 24.9375 23.3333 16.5667 35.9333 16.5667C45.9666 16.5667 53.7833 23.7709 53.7833 33.3375C53.7833 43.3709 47.5708 51.4209 38.6749 51.4209C35.8458 51.4209 33.0749 49.9042 32.0833 48.125L30.1291 55.0375C29.4583 57.5459 27.6208 60.9 26.3666 62.9125V62.8251Z" fill="#CCCCCC"/>
</svg>
