<svg width="70" height="70" viewBox="0 0 70 70" fill="none" xmlns="http://www.w3.org/2000/svg">
<path d="M57.2628 23.3247C57.3007 23.8351 57.3008 24.3426 57.3008 24.8501C57.3008 40.3813 45.4795 58.278 23.8758 58.278C17.2199 58.278 11.0366 56.3501 5.83325 53.0018C6.77825 53.1097 7.68825 53.1476 8.67117 53.1476C13.9591 53.1604 19.0972 51.3922 23.2574 48.128C20.8057 48.0836 18.4291 47.2748 16.4594 45.8143C14.4896 44.3539 13.0251 42.3148 12.2703 39.9818C12.9966 40.0897 13.7258 40.1626 14.4899 40.1626C15.5428 40.1626 16.6016 40.0168 17.5845 39.763C14.9238 39.2258 12.5313 37.7836 10.8138 35.6817C9.09631 33.5797 8.15986 30.9478 8.16367 28.2334V28.0876C9.72992 28.9597 11.547 29.5051 13.472 29.578C11.8593 28.5064 10.537 27.0522 9.62299 25.3453C8.70897 23.6384 8.23166 21.7317 8.23367 19.7955C8.23367 17.6138 8.81409 15.613 9.832 13.8688C12.7841 17.5001 16.466 20.4709 20.6392 22.5887C24.8125 24.7065 29.3841 25.924 34.0578 26.1626C33.877 25.2876 33.7662 24.3805 33.7662 23.4705C33.7654 21.9275 34.0688 20.3994 34.6589 18.9737C35.249 17.548 36.1144 16.2526 37.2055 15.1615C38.2966 14.0704 39.592 13.205 41.0177 12.6149C42.4434 12.0248 43.9715 11.7214 45.5145 11.7222C48.8978 11.7222 51.9516 13.1397 54.0983 15.4322C56.7284 14.9236 59.2507 13.9634 61.5532 12.5943C60.6765 15.3091 58.84 17.6112 56.3878 19.0693C58.7205 18.8032 61.0003 18.1897 63.1516 17.2493C61.5449 19.5916 59.5539 21.6457 57.2628 23.3247Z" fill="#CCCCCC"/>
</svg>
