<svg width="40" height="40" viewBox="0 0 40 40" fill="none" xmlns="http://www.w3.org/2000/svg">
<path d="M20.4167 20C18.6037 20 16.8314 19.4623 15.3239 18.4551C13.8165 17.4479 12.6416 16.0162 11.9478 14.3412C11.254 12.6662 11.0724 10.8231 11.4261 9.04497C11.7798 7.26681 12.6529 5.63347 13.9349 4.35148C15.2168 3.0695 16.8502 2.19646 18.6283 1.84277C20.4065 1.48907 22.2496 1.6706 23.9246 2.3644C25.5996 3.0582 27.0312 4.23312 28.0385 5.74057C29.0457 7.24802 29.5833 9.0203 29.5833 10.8333C29.5789 13.2631 28.6117 15.5921 26.8936 17.3102C25.1755 19.0284 22.8465 19.9956 20.4167 20ZM20.4167 3.3333C18.9333 3.3333 17.4833 3.77316 16.2499 4.59727C15.0165 5.42139 14.0552 6.59272 13.4876 7.96317C12.9199 9.33362 12.7714 10.8416 13.0608 12.2965C13.3502 13.7513 14.0645 15.0877 15.1134 16.1366C16.1623 17.1855 17.4986 17.8998 18.9535 18.1892C20.4083 18.4786 21.9164 18.3301 23.2868 17.7624C24.6572 17.1947 25.8286 16.2334 26.6527 15.0001C27.4768 13.7667 27.9167 12.3167 27.9167 10.8333C27.9123 8.84553 27.1207 6.94043 25.7151 5.53486C24.3095 4.12929 22.4044 3.3377 20.4167 3.3333Z" fill="white"/>
<path d="M5.41671 33.3333C5.19569 33.3333 4.98373 33.2455 4.82745 33.0892C4.67117 32.9329 4.58337 32.7209 4.58337 32.4999C4.58778 28.744 6.08176 25.1433 8.73757 22.4874C11.3934 19.8316 14.9942 18.3377 18.75 18.3333H22.0834C22.3044 18.3333 22.5164 18.421 22.6726 18.5773C22.8289 18.7336 22.9167 18.9456 22.9167 19.1666C22.9167 19.3876 22.8289 19.5996 22.6726 19.7558C22.5164 19.9121 22.3044 19.9999 22.0834 19.9999H18.75C15.4348 19.9999 12.2554 21.3169 9.91121 23.6611C7.567 26.0053 6.25004 29.1847 6.25004 32.4999C6.25004 32.7209 6.16224 32.9329 6.00596 33.0892C5.84968 33.2455 5.63772 33.3333 5.41671 33.3333Z" fill="white"/>
<path d="M27.9167 38.3333C27.6957 38.3333 27.4837 38.2455 27.3275 38.0892C27.1712 37.9329 27.0834 37.7209 27.0834 37.4999V24.1666C27.0834 23.9456 27.1712 23.7336 27.3275 23.5773C27.4837 23.421 27.6957 23.3333 27.9167 23.3333C28.1377 23.3333 28.3497 23.421 28.506 23.5773C28.6622 23.7336 28.75 23.9456 28.75 24.1666V37.4999C28.75 37.7209 28.6622 37.9329 28.506 38.0892C28.3497 38.2455 28.1377 38.3333 27.9167 38.3333Z" fill="white"/>
<path d="M34.5834 31.6667H21.2501C21.0291 31.6667 20.8171 31.5789 20.6608 31.4226C20.5045 31.2663 20.4167 31.0543 20.4167 30.8333C20.4167 30.6123 20.5045 30.4004 20.6608 30.2441C20.8171 30.0878 21.0291 30 21.2501 30H34.5834C34.8044 30 35.0164 30.0878 35.1727 30.2441C35.329 30.4004 35.4167 30.6123 35.4167 30.8333C35.4167 31.0543 35.329 31.2663 35.1727 31.4226C35.0164 31.5789 34.8044 31.6667 34.5834 31.6667Z" fill="white"/>
</svg>
