<svg width="42" height="42" viewBox="0 0 42 42" fill="none" xmlns="http://www.w3.org/2000/svg">
<rect width="42" height="42" fill="#F9EFCF"/>
<path d="M18.6725 26.4197C17.787 31.1902 16.709 35.7647 13.51 38.1535C12.5248 30.9435 14.9608 25.5272 16.0913 19.7785C14.1628 16.436 16.324 9.70721 20.391 11.3645C25.396 13.405 16.0563 23.793 22.3265 25.0915C28.8733 26.446 31.5473 13.3962 27.4873 9.15071C21.6213 3.02396 10.4125 9.01246 11.7915 17.7852C12.1275 19.9307 14.2783 20.5817 12.6508 23.5427C8.89704 22.6835 7.77704 19.635 7.92229 15.5697C8.15329 8.91971 13.727 4.26121 19.3165 3.61721C26.3865 2.80171 33.0208 6.28946 33.936 13.1372C34.9685 20.8652 30.7458 29.2372 23.1875 28.6335C21.1383 28.4707 20.2773 27.426 18.6725 26.4197Z" fill="#F38281"/>
</svg>
