<svg width="42" height="42" viewBox="0 0 42 42" fill="none" xmlns="http://www.w3.org/2000/svg">
<path d="M21 39.0425C17.4316 39.0425 13.9432 37.9844 10.9762 36.0018C8.00908 34.0193 5.69653 31.2014 4.33093 27.9046C2.96534 24.6078 2.60804 20.98 3.30421 17.4801C4.00038 13.9802 5.71876 10.7653 8.24205 8.24205C10.7653 5.71876 13.9802 4.00038 17.4801 3.30421C20.98 2.60804 24.6078 2.96534 27.9046 4.33093C31.2014 5.69653 34.0193 8.00908 36.0018 10.9762C37.9844 13.9432 39.0425 17.4316 39.0425 21C39.0379 25.7838 37.1355 30.3703 33.7529 33.7529C30.3703 37.1355 25.7838 39.0379 21 39.0425ZM21 4.70753C17.7777 4.70753 14.6277 5.66307 11.9484 7.45331C9.26911 9.24355 7.18086 11.7881 5.94772 14.7652C4.71458 17.7422 4.39193 21.0181 5.02058 24.1785C5.64923 27.339 7.20094 30.242 9.47949 32.5206C11.758 34.7991 14.6611 36.3508 17.8215 36.9795C20.982 37.6081 24.2578 37.2855 27.2349 36.0523C30.212 34.8192 32.7565 32.7309 34.5467 30.0517C36.337 27.3724 37.2925 24.2224 37.2925 21C37.2833 16.6818 35.5638 12.5431 32.5103 9.4897C29.4569 6.43627 25.3182 4.71677 21 4.70753Z" fill="#95E1D3"/>
<path d="M14.1925 28C13.2407 28 12.3102 27.7178 11.5188 27.189C10.7274 26.6601 10.1106 25.9085 9.74634 25.0292C9.38209 24.1498 9.28679 23.1822 9.47248 22.2486C9.65817 21.3151 10.1165 20.4576 10.7896 19.7846C11.4626 19.1115 12.3201 18.6532 13.2536 18.4675C14.1872 18.2818 15.1548 18.3771 16.0342 18.7413C16.9135 19.1056 17.6652 19.7224 18.194 20.5138C18.7228 21.3052 19.005 22.2357 19.005 23.1875C19.005 23.8195 18.8805 24.4453 18.6387 25.0292C18.3968 25.613 18.0423 26.1436 17.5955 26.5905C17.1486 27.0373 16.6181 27.3918 16.0342 27.6337C15.4503 27.8755 14.8245 28 14.1925 28ZM14.1925 20.125C13.5831 20.1253 12.9877 20.3073 12.4823 20.6478C11.977 20.9884 11.5847 21.4719 11.3557 22.0366C11.1267 22.6014 11.0714 23.2216 11.1968 23.8179C11.3223 24.4142 11.6228 24.9596 12.0599 25.3842C12.4969 25.8088 13.0508 26.0933 13.6505 26.2014C14.2502 26.3095 14.8685 26.2363 15.4264 25.991C15.9842 25.7457 16.4562 25.3396 16.782 24.8246C17.1077 24.3096 17.2724 23.7091 17.255 23.1C17.2504 22.2892 16.9263 21.5129 16.3529 20.9396C15.7796 20.3662 15.0033 20.0421 14.1925 20.0375V20.125Z" fill="#95E1D3"/>
<path d="M27.8075 28C26.8557 28 25.9252 27.7178 25.1338 27.189C24.3424 26.6601 23.7256 25.9085 23.3613 25.0292C22.9971 24.1498 22.9018 23.1822 23.0875 22.2486C23.2732 21.3151 23.7315 20.4576 24.4045 19.7846C25.0776 19.1115 25.9351 18.6532 26.8686 18.4675C27.8022 18.2818 28.7698 18.3771 29.6492 18.7413C30.5285 19.1056 31.2801 19.7224 31.8089 20.5138C32.3378 21.3052 32.62 22.2357 32.62 23.1875C32.62 24.4639 32.113 25.6879 31.2104 26.5905C30.3079 27.493 29.0839 28 27.8075 28ZM27.8075 20.125C27.2018 20.125 26.6097 20.3046 26.1061 20.6411C25.6024 20.9776 25.2099 21.4559 24.9781 22.0155C24.7463 22.5751 24.6857 23.1909 24.8038 23.785C24.922 24.379 25.2137 24.9247 25.642 25.353C26.0703 25.7813 26.616 26.073 27.21 26.1912C27.8041 26.3093 28.4199 26.2487 28.9795 26.0169C29.5391 25.7851 30.0174 25.3926 30.3539 24.8889C30.6904 24.3853 30.87 23.7932 30.87 23.1875C30.8817 22.778 30.8111 22.3704 30.6625 21.9886C30.5138 21.6069 30.2901 21.2589 30.0045 20.9652C29.719 20.6715 29.3774 20.438 29 20.2787C28.6227 20.1194 28.2171 20.0373 27.8075 20.0375V20.125Z" fill="#95E1D3"/>
<path d="M4.23505 18.13C4.03334 18.13 3.8378 18.0604 3.68154 17.9328C3.52528 17.8053 3.41789 17.6276 3.37755 17.43C3.33576 17.203 3.3835 16.9687 3.51076 16.7762C3.63801 16.5837 3.83488 16.448 4.06005 16.3975C4.25255 16.3625 23.1875 12.25 28.2801 5.24999C28.3477 5.15672 28.4331 5.07772 28.5313 5.01754C28.6296 4.95735 28.7387 4.91717 28.8526 4.89928C28.9664 4.88139 29.0826 4.88616 29.1946 4.91331C29.3066 4.94046 29.4121 4.98946 29.5051 5.05749C29.6896 5.19692 29.8129 5.40257 29.8488 5.6311C29.8847 5.85962 29.8305 6.09316 29.6975 6.28249C24.2025 13.825 5.25005 17.9375 4.42755 18.1125L4.23505 18.13Z" fill="#95E1D3"/>
<path d="M33.25 15.2251C28.9146 15.0804 24.6431 14.1372 20.65 12.4426C20.4365 12.3497 20.2686 12.1759 20.1833 11.9593C20.098 11.7427 20.1022 11.5011 20.195 11.2876C20.2878 11.0741 20.4617 10.9062 20.6783 10.8209C20.8949 10.7355 21.1365 10.7397 21.35 10.8326C21.4375 10.8326 29.645 14.4901 36.54 13.1951C36.7694 13.1538 37.0059 13.2039 37.1988 13.3347C37.3918 13.4655 37.5259 13.6667 37.5725 13.8951C37.6134 14.1224 37.5628 14.3567 37.4316 14.5468C37.3005 14.7369 37.0995 14.8675 36.8725 14.9101C35.678 15.1318 34.4648 15.2373 33.25 15.2251Z" fill="#95E1D3"/>
<path d="M23.87 23.975H18.13C17.8979 23.975 17.6754 23.8828 17.5113 23.7187C17.3472 23.5546 17.255 23.332 17.255 23.1C17.2595 22.8693 17.3531 22.6493 17.5162 22.4862C17.6794 22.3231 17.8993 22.2295 18.13 22.225H23.87C24.1007 22.2295 24.3206 22.3231 24.4838 22.4862C24.6469 22.6493 24.7405 22.8693 24.745 23.1C24.745 23.332 24.6528 23.5546 24.4887 23.7187C24.3246 23.8828 24.1021 23.975 23.87 23.975Z" fill="#95E1D3"/>
<path d="M10.255 23.975H3.97253C3.74047 23.975 3.51791 23.8828 3.35382 23.7187C3.18972 23.5546 3.09753 23.332 3.09753 23.1C3.10201 22.8693 3.19564 22.6493 3.35877 22.4862C3.52191 22.3231 3.74187 22.2295 3.97253 22.225H10.255C10.4871 22.225 10.7097 22.3172 10.8738 22.4813C11.0378 22.6454 11.13 22.8679 11.13 23.1C11.13 23.332 11.0378 23.5546 10.8738 23.7187C10.7097 23.8828 10.4871 23.975 10.255 23.975Z" fill="#95E1D3"/>
<path d="M38.045 23.975H31.745C31.5129 23.975 31.2904 23.8828 31.1263 23.7187C30.9622 23.5546 30.87 23.332 30.87 23.1C30.87 22.8679 30.9622 22.6454 31.1263 22.4813C31.2904 22.3172 31.5129 22.225 31.745 22.225H38.045C38.2771 22.225 38.4996 22.3172 38.6637 22.4813C38.8278 22.6454 38.92 22.8679 38.92 23.1C38.92 23.332 38.8278 23.5546 38.6637 23.7187C38.4996 23.8828 38.2771 23.975 38.045 23.975Z" fill="#95E1D3"/>
</svg>
