<svg width="42" height="42" viewBox="0 0 42 42" fill="none" xmlns="http://www.w3.org/2000/svg">
<path d="M20.9999 39.2175C20.367 39.2188 19.7413 39.0816 19.1669 38.8156C18.5926 38.5496 18.0833 38.1611 17.6749 37.6775L16.1349 35.9275C15.8735 35.6201 15.5452 35.3768 15.1751 35.216C14.805 35.0552 14.403 34.9813 13.9999 35L11.6549 35.21C11.0226 35.2628 10.3864 35.1773 9.79035 34.9597C9.19432 34.742 8.65277 34.3973 8.20326 33.9495C7.75375 33.5016 7.40704 32.9614 7.18717 32.3661C6.96729 31.7709 6.87952 31.135 6.92995 30.5025L6.99995 28.105C7.03253 27.6901 6.96533 27.2734 6.80397 26.8898C6.64261 26.5062 6.39179 26.1668 6.07245 25.9L4.32245 24.3775C3.8365 23.9685 3.44585 23.4581 3.17785 22.8823C2.90986 22.3064 2.771 21.6789 2.771 21.0437C2.771 20.4086 2.90986 19.7811 3.17785 19.2052C3.44585 18.6293 3.8365 18.119 4.32245 17.71L6.07245 16.17C6.38463 15.9049 6.63093 15.5709 6.79189 15.1943C6.95286 14.8177 7.02408 14.4088 6.99995 14L6.82495 11.6025C6.77218 10.9702 6.85759 10.3339 7.07525 9.73788C7.29291 9.14186 7.63762 8.60031 8.08546 8.1508C8.53331 7.70129 9.07358 7.35457 9.66879 7.1347C10.264 6.91483 10.8999 6.82706 11.5324 6.87748L13.8949 6.99998C14.3041 7.04102 14.7171 6.98473 15.1003 6.8357C15.4835 6.68668 15.826 6.44914 16.0999 6.14248L17.6224 4.39248C18.0305 3.89014 18.5454 3.48501 19.1296 3.20652C19.7138 2.92803 20.3527 2.78317 20.9999 2.78248V2.78248C21.6329 2.78116 22.2586 2.91833 22.8329 3.18436C23.4073 3.45039 23.9166 3.83884 24.3249 4.32248V4.32248L25.8649 6.07248C26.1281 6.3778 26.4567 6.61979 26.8264 6.78038C27.1961 6.94098 27.5972 7.01604 27.9999 6.99998L30.3449 6.78998C30.9773 6.73721 31.6135 6.82262 32.2095 7.04028C32.8056 7.25795 33.3471 7.60265 33.7966 8.0505C34.2461 8.49834 34.5929 9.03861 34.8127 9.63382C35.0326 10.229 35.1204 10.865 35.0699 11.4975L34.9999 13.895C34.9674 14.3099 35.0346 14.7265 35.1959 15.1101C35.3573 15.4937 35.6081 15.8331 35.9274 16.1L37.6774 17.6225C38.1634 18.0315 38.554 18.5418 38.822 19.1177C39.09 19.6936 39.2289 20.3211 39.2289 20.9562C39.2289 21.5914 39.09 22.2189 38.822 22.7948C38.554 23.3706 38.1634 23.881 37.6774 24.29L35.9274 25.83C35.6153 26.0951 35.369 26.4291 35.208 26.8057C35.047 27.1823 34.9758 27.5911 34.9999 28L35.2099 30.3625C35.2627 30.9948 35.1773 31.631 34.9596 32.2271C34.742 32.8231 34.3973 33.3647 33.9494 33.8142C33.5016 34.2637 32.9613 34.6104 32.3661 34.8303C31.7709 35.0501 31.135 35.1379 30.5024 35.0875L28.1049 35C27.6902 34.9688 27.274 35.0367 26.8907 35.198C26.5073 35.3592 26.1677 35.6093 25.8999 35.9275L24.3774 37.6775C23.9699 38.1634 23.4613 38.5545 22.887 38.8235C22.3127 39.0925 21.6866 39.233 21.0524 39.235L20.9999 39.2175ZM14.1749 33.25C14.8079 33.2487 15.4336 33.3858 16.0079 33.6519C16.5823 33.9179 17.0916 34.3063 17.4999 34.79L19.0399 36.54C19.2832 36.8325 19.5883 37.0674 19.9333 37.2278C20.2783 37.3881 20.6545 37.47 21.0349 37.4675V37.4675C21.417 37.4644 21.794 37.3801 22.1409 37.2201C22.4879 37.0602 22.7969 36.8284 23.0474 36.54L24.5699 34.79C25.0111 34.2538 25.5764 33.8334 26.2168 33.565C26.8572 33.2967 27.5533 33.1885 28.2449 33.25L30.6074 33.425C30.9859 33.4599 31.3673 33.4105 31.7244 33.2804C32.0814 33.1502 32.4052 32.9426 32.6724 32.6725C32.941 32.4005 33.1474 32.0734 33.2773 31.7139C33.4073 31.3543 33.4576 30.9709 33.4249 30.59L33.2499 28.1925C33.1859 27.5014 33.2893 26.805 33.5512 26.1623C33.8132 25.5196 34.2261 24.9494 34.7549 24.5L36.5049 22.96C36.7993 22.7239 37.0381 22.4259 37.2045 22.0872C37.3708 21.7484 37.4606 21.3773 37.4674 21C37.4643 20.618 37.38 20.241 37.2201 19.894C37.0602 19.547 36.8284 19.238 36.5399 18.9875L34.7899 17.465C34.2498 17.0194 33.827 16.4482 33.5586 15.8015C33.2901 15.1548 33.1842 14.4521 33.2499 13.755L33.4249 11.3925C33.4586 11.0142 33.4086 10.6331 33.2786 10.2762C33.1486 9.91934 32.9416 9.59545 32.6724 9.32748C32.4011 9.05791 32.0741 8.85088 31.7144 8.7209C31.3547 8.59092 30.9709 8.54112 30.5899 8.57498L28.1924 8.74998C27.501 8.8185 26.8032 8.71723 26.1597 8.45496C25.5163 8.19269 24.9465 7.77735 24.4999 7.24498L22.9599 5.49498C22.7238 5.20061 22.4259 4.96179 22.0871 4.79545C21.7484 4.62912 21.3772 4.53934 20.9999 4.53248V4.53248C20.6179 4.5356 20.2409 4.61991 19.894 4.77982C19.547 4.93972 19.238 5.17157 18.9874 5.45998L17.4649 7.20998C17.0183 7.74894 16.447 8.17087 15.8006 8.43922C15.1541 8.70757 14.4519 8.81423 13.7549 8.74998L11.3924 8.57498C11.0141 8.54132 10.633 8.59129 10.2762 8.72133C9.91931 8.85137 9.59542 9.05831 9.32745 9.32748C9.05169 9.60538 8.84114 9.94109 8.711 10.3103C8.58086 10.6796 8.53439 11.0731 8.57495 11.4625L8.74995 13.8075C8.81396 14.4986 8.71062 15.1949 8.44866 15.8376C8.1867 16.4804 7.77382 17.0505 7.24495 17.5L5.49495 19.04C5.20058 19.2761 4.96176 19.5741 4.79542 19.9128C4.62908 20.2515 4.5393 20.6227 4.53245 21C4.53557 21.382 4.61988 21.759 4.77978 22.106C4.93969 22.4529 5.17153 22.7619 5.45995 23.0125L7.20995 24.535C7.75008 24.9806 8.17285 25.5517 8.44131 26.1985C8.70976 26.8452 8.81573 27.5478 8.74995 28.245L8.57495 30.6075C8.54129 30.9858 8.59125 31.3669 8.72129 31.7238C8.85134 32.0806 9.05828 32.4045 9.32745 32.6725C9.59878 32.9421 9.92575 33.1491 10.2855 33.2791C10.6452 33.409 11.029 33.4588 11.4099 33.425L13.8074 33.25H14.1749Z" fill="#95E1D3"/>
<path d="M21 27.125C19.3755 27.125 17.8176 26.4797 16.669 25.331C15.5203 24.1824 14.875 22.6245 14.875 21C14.875 19.3755 15.5203 17.8176 16.669 16.669C17.8176 15.5203 19.3755 14.875 21 14.875V14.875C22.6245 14.875 24.1824 15.5203 25.331 16.669C26.4797 17.8176 27.125 19.3755 27.125 21C27.125 22.6245 26.4797 24.1824 25.331 25.331C24.1824 26.4797 22.6245 27.125 21 27.125ZM21 16.625C19.8397 16.625 18.7269 17.0859 17.9064 17.9064C17.0859 18.7269 16.625 19.8397 16.625 21C16.625 22.1603 17.0859 23.2731 17.9064 24.0936C18.7269 24.9141 19.8397 25.375 21 25.375C22.1603 25.375 23.2731 24.9141 24.0936 24.0936C24.9141 23.2731 25.375 22.1603 25.375 21C25.375 19.8397 24.9141 18.7269 24.0936 17.9064C23.2731 17.0859 22.1603 16.625 21 16.625V16.625Z" fill="#95E1D3"/>
</svg>
