<svg width="81" height="81" viewBox="0 0 81 81" fill="none" xmlns="http://www.w3.org/2000/svg">
<path d="M12.4529 15.2097L0 27.6626L12.4529 40.1155L24.9058 27.6626L12.4529 15.2097Z" fill="#414042"/>
<path d="M24.9265 27.6571L12.4689 15.1995C15.7702 18.502 17.6248 22.9805 17.6248 27.6501C17.6248 32.3198 15.7702 36.7983 12.4689 40.1008L0.0112305 52.5445L12.4689 65.0021L24.9265 52.5445L37.3841 40.1008L24.9265 27.6571Z" fill="url(#paint0_linear_2551_676)"/>
<path d="M67.7534 65.0291L80.206 52.5762L67.7534 40.1233L55.3005 52.5762L67.7534 65.0291Z" fill="#414042"/>
<path d="M55.3025 52.5724L67.7602 65.0161C64.4588 61.7136 62.6043 57.2351 62.6043 52.5654C62.6043 47.8958 64.4588 43.4173 67.7602 40.1148L80.218 27.6571L67.7602 15.1995L55.3025 27.6571L42.8589 40.1148L55.3025 52.5724Z" fill="url(#paint1_linear_2551_676)"/>
<path d="M15.2087 67.7672L27.6616 80.2201L40.1145 67.7672L27.6616 55.3142L15.2087 67.7672Z" fill="#414042"/>
<path d="M27.6637 55.2955L15.2061 67.7531C18.5086 64.4518 22.987 62.5972 27.6567 62.5972C32.3263 62.5972 36.8048 64.4518 40.1073 67.7531L52.5511 80.211L65.0087 67.7531L52.5511 55.2955L40.1073 42.8518L27.6637 55.2955Z" fill="url(#paint2_linear_2551_676)"/>
<path d="M65.0287 12.453L52.5757 0L40.1228 12.4529L52.5757 24.9059L65.0287 12.453Z" fill="#414042"/>
<path d="M52.5789 24.9197L65.0227 12.4621C61.7201 15.7634 57.2416 17.618 52.572 17.618C47.9023 17.618 43.4239 15.7634 40.1213 12.4621L27.6637 0.00439453L15.2061 12.4621L27.6637 24.9197L40.1213 37.3774L52.5789 24.9197Z" fill="url(#paint3_linear_2551_676)"/>
<defs>
<linearGradient id="paint0_linear_2551_676" x1="18.572" y1="62.9631" x2="18.8792" y2="19.8781" gradientUnits="userSpaceOnUse">
<stop stop-color="#414042"/>
<stop offset="1" stop-color="#E6E7E8"/>
</linearGradient>
<linearGradient id="paint1_linear_2551_676" x1="146805" y1="18832.4" x2="146790" y2="20369.2" gradientUnits="userSpaceOnUse">
<stop stop-color="#414042"/>
<stop offset="1" stop-color="#E6E7E8"/>
</linearGradient>
<linearGradient id="paint2_linear_2551_676" x1="94595.9" y1="113289" x2="93443.3" y2="113283" gradientUnits="userSpaceOnUse">
<stop stop-color="#414042"/>
<stop offset="1" stop-color="#E6E7E8"/>
</linearGradient>
<linearGradient id="paint3_linear_2551_676" x1="77140.6" y1="-58646" x2="78293.6" y2="-58639.8" gradientUnits="userSpaceOnUse">
<stop stop-color="#414042"/>
<stop offset="1" stop-color="#E6E7E8"/>
</linearGradient>
</defs>
</svg>
