<svg width="69" height="67" viewBox="0 0 69 67" fill="none" xmlns="http://www.w3.org/2000/svg">
<path opacity="0.95" d="M11.7 55.11V66.76L21.78 60.93V49.29L11.7 55.11Z" fill="#414042"/>
<path opacity="0.5" d="M10.08 55.11V66.76L0 60.93V49.29L10.08 55.11Z" fill="#414042"/>
<path opacity="0.3" d="M11.7 42.53V53.24L20.98 47.88L11.7 42.53Z" fill="#414042"/>
<path opacity="0.75" d="M10.08 42.53L0.799988 47.88L10.08 53.24V42.53Z" fill="#414042"/>
<path opacity="0.95" d="M10.08 39.67V28.02L0 33.85V45.49L10.08 39.67Z" fill="#414042"/>
<path opacity="0.95" d="M11.7 12.58V24.23L21.78 18.4V6.76001L11.7 12.58Z" fill="#414042"/>
<path opacity="0.5" d="M10.08 12.58V24.23L0 18.4V6.76001L10.08 12.58Z" fill="#414042"/>
<path opacity="0.3" d="M11.7 0V10.71L20.98 5.35L11.7 0Z" fill="#414042"/>
<path opacity="0.75" d="M10.08 0L0.799988 5.35L10.08 10.71V0Z" fill="#414042"/>
<path opacity="0.75" d="M0.799988 20.72V31.44L10.08 26.08L0.799988 20.72Z" fill="#414042"/>
<path opacity="0.15" d="M20.98 20.72L11.7 26.08L20.98 31.44V20.72Z" fill="#414042"/>
<path opacity="0.5" d="M11.7 39.67V28.02L21.78 33.85V45.49L11.7 39.67Z" fill="#414042"/>
<path opacity="0.95" d="M35.2 55.11V66.76L45.28 60.93V49.29L35.2 55.11Z" fill="#414042"/>
<path opacity="0.5" d="M33.58 55.11V66.76L23.5 60.93V49.29L33.58 55.11Z" fill="#414042"/>
<path opacity="0.3" d="M35.2 42.53V53.24L44.48 47.88L35.2 42.53Z" fill="#414042"/>
<path opacity="0.75" d="M33.58 42.53L24.3 47.88L33.58 53.24V42.53Z" fill="#414042"/>
<path opacity="0.95" d="M33.58 39.67V28.02L23.5 33.85V45.49L33.58 39.67Z" fill="#414042"/>
<path opacity="0.95" d="M35.2 12.58V24.23L45.28 18.4V6.76001L35.2 12.58Z" fill="#414042"/>
<path opacity="0.5" d="M33.58 12.58V24.23L23.5 18.4V6.76001L33.58 12.58Z" fill="#414042"/>
<path opacity="0.3" d="M35.2 0V10.71L44.48 5.35L35.2 0Z" fill="#414042"/>
<path opacity="0.75" d="M33.58 0L24.3 5.35L33.58 10.71V0Z" fill="#414042"/>
<path opacity="0.75" d="M24.3 20.72V31.44L33.58 26.08L24.3 20.72Z" fill="#414042"/>
<path opacity="0.15" d="M44.48 20.72L35.2 26.08L44.48 31.44V20.72Z" fill="#414042"/>
<path opacity="0.5" d="M35.2 39.67V28.02L45.28 33.85V45.49L35.2 39.67Z" fill="#414042"/>
<path opacity="0.95" d="M58.3599 55.11V66.76L68.4498 60.93V49.29L58.3599 55.11Z" fill="#414042"/>
<path opacity="0.5" d="M56.7499 55.11V66.76L46.6599 60.93V49.29L56.7499 55.11Z" fill="#414042"/>
<path opacity="0.3" d="M58.3599 42.53V53.24L67.6398 47.88L58.3599 42.53Z" fill="#414042"/>
<path opacity="0.75" d="M56.75 42.53L47.47 47.88L56.75 53.24V42.53Z" fill="#414042"/>
<path opacity="0.95" d="M56.7499 39.67V28.02L46.6599 33.85V45.49L56.7499 39.67Z" fill="#414042"/>
<path opacity="0.95" d="M58.3599 12.58V24.23L68.4498 18.4V6.76001L58.3599 12.58Z" fill="#414042"/>
<path opacity="0.5" d="M56.7499 12.58V24.23L46.6599 18.4V6.76001L56.7499 12.58Z" fill="#414042"/>
<path opacity="0.3" d="M58.3599 0V10.71L67.6398 5.35L58.3599 0Z" fill="#414042"/>
<path opacity="0.75" d="M56.75 0L47.47 5.35L56.75 10.71V0Z" fill="#414042"/>
<path opacity="0.75" d="M47.47 20.72V31.44L56.75 26.08L47.47 20.72Z" fill="#414042"/>
<path opacity="0.15" d="M67.6398 20.72L58.3599 26.08L67.6398 31.44V20.72Z" fill="#414042"/>
<path opacity="0.5" d="M58.3599 39.67V28.02L68.4498 33.85V45.49L58.3599 39.67Z" fill="#414042"/>
</svg>
